# Blender v2.79 (sub 0) OBJ File: 'wizards.blend'
# www.blender.org
o Grass.001_Cube.834
v -6.871478 -0.163522 3.502238
v -6.871478 0.036478 3.502238
v -6.871478 -0.163522 -3.502238
v -6.871478 0.036478 -3.502238
v 6.871478 -0.163522 3.502238
v 6.871478 0.036478 3.502238
v 6.871478 -0.163522 -3.502238
v 6.871478 0.036478 -3.502238
v 0.057776 -0.163522 -3.502238
v 0.057776 0.036478 -3.502238
v 0.057776 -0.163522 3.502238
v 0.057776 0.036478 3.502238
v -0.959685 -0.163522 -3.502238
v -0.959685 0.036478 3.502238
v -0.959685 0.036478 -3.502238
v -0.959685 -0.163522 3.502238
v -6.871478 -0.163522 2.037855
v -6.871478 0.036478 2.037855
v 6.871478 -0.163522 2.037855
v 6.871478 0.036478 2.037855
v 0.057776 0.036478 2.037855
v 0.057776 -0.163522 2.037855
v -0.959685 -0.163522 2.037855
v -0.959685 0.036478 2.037855
v -6.871478 0.036478 1.555164
v 6.871478 -0.163522 1.555164
v -6.871478 -0.163522 1.555164
v 6.871478 0.036478 1.555164
v 0.057776 0.036478 1.555164
v 0.057776 -0.163522 1.555164
v -0.959685 -0.163522 1.555164
v -0.959685 0.036478 1.555164
vn -1.0000 0.0000 0.0000
vn 0.0000 0.0000 -1.0000
vn 1.0000 0.0000 0.0000
vn 0.0000 0.0000 1.0000
vn 0.0000 -1.0000 0.0000
vn 0.0000 1.0000 0.0000
s off
f 25//1 3//1 27//1
f 10//2 7//2 9//2
f 20//3 5//3 19//3
f 14//4 1//4 16//4
f 19//5 11//5 22//5
f 18//6 14//6 24//6
f 21//6 6//6 20//6
f 22//5 16//5 23//5
f 6//4 11//4 5//4
f 15//2 9//2 13//2
f 4//2 13//2 3//2
f 23//5 1//5 17//5
f 24//6 12//6 21//6
f 12//4 16//4 11//4
f 31//5 17//5 27//5
f 29//6 20//6 28//6
f 25//6 24//6 32//6
f 26//5 22//5 30//5
f 28//3 19//3 26//3
f 2//1 17//1 1//1
f 8//3 26//3 7//3
f 7//5 30//5 9//5
f 4//6 32//6 15//6
f 10//6 28//6 8//6
f 9//5 31//5 13//5
f 13//5 27//5 3//5
f 15//6 29//6 10//6
f 18//1 27//1 17//1
f 29//4 31//4 30//4
f 31//3 24//3 23//3
f 21//2 23//2 24//2
f 29//1 22//1 21//1
f 25//1 4//1 3//1
f 10//2 8//2 7//2
f 20//3 6//3 5//3
f 14//4 2//4 1//4
f 19//5 5//5 11//5
f 18//6 2//6 14//6
f 21//6 12//6 6//6
f 22//5 11//5 16//5
f 6//4 12//4 11//4
f 15//2 10//2 9//2
f 4//2 15//2 13//2
f 23//5 16//5 1//5
f 24//6 14//6 12//6
f 12//4 14//4 16//4
f 31//5 23//5 17//5
f 29//6 21//6 20//6
f 25//6 18//6 24//6
f 26//5 19//5 22//5
f 28//3 20//3 19//3
f 2//1 18//1 17//1
f 8//3 28//3 26//3
f 7//5 26//5 30//5
f 4//6 25//6 32//6
f 10//6 29//6 28//6
f 9//5 30//5 31//5
f 13//5 31//5 27//5
f 15//6 32//6 29//6
f 18//1 25//1 27//1
f 29//4 32//4 31//4
f 31//3 32//3 24//3
f 21//2 22//2 23//2
f 29//1 30//1 22//1
