# Blender v2.79 (sub 0) OBJ File: 'burgomasters.blend'
# www.blender.org
o F1_Ground_Cube.003
v -3.452447 -0.100504 2.293453
v -2.397405 0.003607 1.430936
v -3.452447 -0.100504 -2.293453
v -2.397405 0.003607 -1.430936
v 3.567046 -0.100504 2.293453
v 2.359205 0.003607 1.430936
v 3.567046 -0.100504 -2.293453
v 2.359205 0.003607 -1.430936
v -3.452447 0.003607 2.293453
v -3.452447 0.003607 -2.293453
v 3.567046 0.003607 -2.293453
v 3.567046 0.003607 2.293453
v -2.397405 0.105374 1.430936
v -2.397405 0.105374 -1.430936
v 2.359205 0.105374 -1.430936
v 2.359205 0.105374 1.430936
vt 0.206338 0.227079
vt 0.096550 0.227079
vt 0.096550 0.106255
vt 0.206338 0.106254
vt 0.465360 0.518740
vt 0.465360 0.397916
vt 0.575149 0.397916
vt 0.575149 0.518740
vt 0.575149 0.639565
vt 0.465360 0.639565
vt 0.465360 0.518740
vt 0.096550 0.560412
vt 0.096550 0.439588
vt 0.206338 0.439588
vt 0.206338 0.560412
vt 0.702325 0.227079
vt 0.702325 0.106254
vt 0.812114 0.106254
vt 0.812114 0.227079
vt 0.045525 0.729346
vt 0.045525 0.937320
vt 0.000000 1.000000
vt 0.000000 0.666667
vt 0.250770 0.937320
vt 0.302888 1.000000
vt 0.250770 0.729346
vt 0.302888 0.666667
vt 0.811022 0.333333
vt 1.000000 0.333333
vt 1.000000 0.659161
vt 0.811022 0.659161
vt 0.241984 0.522666
vt 0.241984 0.132861
vt 0.406458 0.132860
vt 0.406458 0.522666
vt 0.491867 0.992495
vt 0.302888 0.992495
vt 0.302888 0.666667
vt 0.491866 0.666667
vt 0.811022 0.659161
vt 0.605776 0.659161
vt 0.605776 0.333333
vt 0.811021 0.333333
vt 0.811022 0.984989
vt 0.605776 0.984989
vt 0.605776 0.659161
vt 0.811021 0.659161
vn -1.0000 0.0000 0.0000
vn 0.0000 0.0000 -1.0000
vn 1.0000 0.0000 0.0000
vn 0.0000 0.0000 1.0000
vn 0.0000 -1.0000 0.0000
vn 0.0000 1.0000 0.0000
s off
f 1/1/1 9/2/1 10/3/1 3/4/1
f 3/5/2 10/6/2 11/7/2 7/8/2
f 7/8/3 11/9/3 12/10/3 5/11/3
f 5/12/4 12/13/4 9/14/4 1/15/4
f 3/16/5 7/17/5 5/18/5 1/19/5
f 2/20/6 4/21/6 10/22/6 9/23/6
f 4/21/6 8/24/6 11/25/6 10/22/6
f 8/24/6 6/26/6 12/27/6 11/25/6
f 6/26/6 2/20/6 9/23/6 12/27/6
f 6/28/3 8/29/3 15/30/3 16/31/3
f 15/32/6 14/33/6 13/34/6 16/35/6
f 4/36/1 2/37/1 13/38/1 14/39/1
f 2/40/4 6/41/4 16/42/4 13/43/4
f 8/44/2 4/45/2 14/46/2 15/47/2
