# Blender v2.79 (sub 0) OBJ File: 'low_poly_death_house.blend'
# www.blender.org
mtllib floor3_armour.mtl
o Cylinder.011
v -0.779602 0.735582 0.302678
v -0.779602 1.315562 0.302678
v -1.006530 0.735582 0.188322
v -1.006530 1.315562 0.188322
v -0.779602 1.138739 0.302678
v -1.006530 1.138739 0.188322
v -1.059325 1.315562 0.352295
v -0.832398 1.315562 0.466651
v -0.832398 1.138739 0.466651
v -1.059325 1.138739 0.352295
v -1.014797 1.138739 0.204727
v -1.014797 1.315562 0.204727
v -0.787869 1.315562 0.319083
v -0.787869 1.138739 0.319083
v -0.864718 0.764058 0.371524
v -1.011224 0.764058 0.297695
v -0.982476 0.764058 0.240648
v -0.835971 0.764058 0.314477
v -0.709478 1.315562 0.152984
v -0.893066 1.315562 0.152984
v -0.893066 1.495912 0.152984
v -0.709478 1.495912 0.152984
v -0.797790 0.735582 0.239856
v -0.929484 0.735582 0.173492
v -0.757095 0.735582 0.121573
v -0.863637 0.735582 0.206674
v -0.929484 0.735582 0.088391
v -0.843289 0.735582 0.104982
v -0.792823 0.379880 0.139210
v -0.816650 0.379880 0.208465
v -0.855203 0.379880 0.189037
v -0.893756 0.379880 0.169609
v -0.893756 0.379880 0.119782
v -0.843289 0.379880 0.129496
v -0.897901 0.421148 0.170059
v -0.856181 0.421148 0.191083
v -0.814462 0.421148 0.212107
v -0.843289 0.421148 0.126652
v -0.897901 0.421148 0.116140
v -0.788678 0.421148 0.137164
v -0.654249 0.379573 0.208918
v -0.664550 0.379573 0.238860
v -0.663604 0.397415 0.240434
v -0.652457 0.397415 0.208033
v -0.639353 0.735582 0.003289
v -0.691053 1.315562 0.003289
v -0.779602 0.735582 -0.296100
v -0.779602 1.315562 -0.296100
v -1.006530 0.735582 -0.181743
v -1.006530 1.315562 -0.181743
v -0.593295 1.138739 0.003289
v -0.779602 1.138739 -0.296100
v -1.006530 1.138739 -0.181743
v -1.059326 1.315562 -0.345716
v -0.832398 1.315562 -0.460072
v -0.832398 1.138739 -0.460072
v -1.059326 1.138739 -0.345716
v -1.014797 1.138739 -0.198148
v -1.014797 1.315562 -0.198148
v -0.787869 1.315562 -0.312505
v -0.787869 1.138739 -0.312505
v -1.012000 1.320436 0.003290
v -1.006530 0.735582 0.003290
v -1.006530 1.138739 0.003290
v -0.864719 0.764058 -0.364945
v -1.011224 0.764058 -0.291116
v -0.982476 0.764058 -0.234069
v -0.835971 0.764058 -0.307898
v -0.709478 1.315562 -0.146405
v -0.893066 1.315562 -0.146405
v -0.822942 1.703564 0.003289
v -1.006530 1.495912 0.003290
v -0.893066 1.495912 -0.146405
v -0.709478 1.495912 -0.146405
v -0.716399 0.735582 0.003289
v -0.797791 0.735582 -0.233277
v -0.929484 0.735582 -0.166913
v -0.929484 0.735582 0.003290
v -0.757095 0.735582 -0.114994
v -0.863637 0.735582 -0.200095
v -0.929484 0.735582 -0.081812
v -0.822942 0.735582 0.003289
v -0.843289 0.735582 -0.098403
v -0.792823 0.379880 -0.132632
v -0.816650 0.379880 -0.201886
v -0.855203 0.379880 -0.182458
v -0.893756 0.379880 -0.163030
v -0.893756 0.379880 -0.113203
v -0.843289 0.379880 -0.122917
v -0.626123 1.509563 0.003289
v -0.897901 0.421148 -0.163480
v -0.856181 0.421148 -0.184504
v -0.814462 0.421148 -0.205528
v -0.843289 0.421148 -0.120073
v -0.897901 0.421148 -0.109561
v -0.788678 0.421148 -0.130585
v -0.654249 0.379573 -0.202339
v -0.664550 0.379573 -0.232281
v -0.663604 0.397415 -0.233856
v -0.652457 0.397415 -0.201455
vt 0.250356 0.205828
vt 0.314175 0.208414
vt 0.276870 0.298530
vt 0.410439 0.298292
vt 0.315634 0.374396
vt 0.316693 0.298924
vt 0.316889 0.290798
vt 0.410636 0.191086
vt 0.410636 0.290166
vt 0.688451 0.803290
vt 0.644952 0.849829
vt 0.643939 0.712324
vt 0.624379 0.189646
vt 0.624379 0.288726
vt 0.459541 0.470302
vt 0.552020 0.694076
vt 0.458036 0.688257
vt 0.335771 0.694076
vt 0.853291 0.304263
vt 0.759180 0.203610
vt 0.853206 0.208666
vt 0.635204 0.849899
vt 0.553525 0.698558
vt 0.634191 0.712395
vt 0.548164 0.995099
vt 0.492289 0.895924
vt 0.548164 0.899541
vt 0.292125 0.938950
vt 0.201749 0.735945
vt 0.274716 0.735945
vt 0.741388 0.698558
vt 0.731638 0.836127
vt 0.731638 0.698558
vt 0.460201 0.374707
vt 0.466533 0.469991
vt 0.748388 0.536477
vt 0.707499 0.490405
vt 0.748388 0.436305
vt 0.587427 0.985803
vt 0.621329 0.896987
vt 0.621329 0.985803
vt 0.609170 0.347020
vt 0.409380 0.373765
vt 0.985904 0.162663
vt 0.985904 0.370303
vt 0.961987 0.365724
vt 0.853291 0.003264
vt 0.731638 0.714260
vt 0.884815 0.581704
vt 0.972715 0.482412
vt 0.972715 0.577188
vt 0.974131 0.587668
vt 0.882037 0.683480
vt 0.882037 0.585977
vt 0.961481 0.902398
vt 0.882037 0.837250
vt 0.961481 0.792396
vt 0.885255 0.484164
vt 0.958843 0.374396
vt 0.974131 0.685172
vt 0.943148 0.792396
vt 0.313676 0.110951
vt 0.939979 0.171412
vt 0.925311 0.194477
vt 0.922686 0.172204
vt 0.672554 0.426370
vt 0.627956 0.374396
vt 0.616011 0.472441
vt 0.553525 0.536477
vt 0.957272 0.193013
vt 0.941292 0.193745
vt 0.707499 0.536477
vt 0.661755 0.481423
vt 0.650956 0.536477
vt 0.957465 0.108783
vt 0.995791 0.086263
vt 0.989690 0.108791
vt 0.983588 0.131319
vt 0.957658 0.136605
vt 0.787066 0.959646
vt 0.765099 0.982037
vt 0.763161 0.959646
vt 0.379396 0.892505
vt 0.409515 0.975087
vt 0.391331 0.975087
vt 0.868083 0.811456
vt 0.841871 0.789037
vt 0.868026 0.789037
vt 0.809282 0.982037
vt 0.787190 0.982037
vt 0.314175 0.475530
vt 0.399068 0.377616
vt 0.314175 0.911660
vt 0.379396 0.892505
vt 0.379396 1.000000
vt 0.786118 0.789037
vt 0.810972 0.959646
vt 0.868521 0.982277
vt 0.839780 0.811456
vt 0.961987 0.199562
vt 0.928644 0.370303
vt 0.918430 0.199562
vt 0.748388 0.789037
vt 0.929978 0.001250
vt 0.957272 0.170620
vt 0.902685 0.002500
vt 0.302318 0.735945
vt 0.311107 0.748094
vt 0.301592 0.748094
vt 0.957272 0.080961
vt 0.995791 0.002292
vt 0.854426 0.199562
vt 0.853291 0.189932
vt 0.292125 0.818366
vt 0.314133 0.818366
vt 0.176727 0.204318
vt 0.315634 0.000632
vt 0.410439 0.082564
vt 0.316693 0.083196
vt 0.316889 0.092638
vt 0.410636 0.092007
vt 0.405602 0.741234
vt 0.449102 0.787773
vt 0.404589 0.878738
vt 0.624379 0.090567
vt 0.313904 0.517745
vt 0.179103 0.735945
vt 0.179103 0.517939
vt 0.265723 0.517745
vt 0.089823 0.299875
vt 0.624379 0.095811
vt 0.759180 0.000000
vt 0.759180 0.095617
vt 0.314175 0.892505
vt 0.395854 0.741164
vt 0.394841 0.878668
vt 0.000489 0.299174
vt 0.079602 0.204335
vt 0.080091 0.299892
vt 0.882037 0.585977
vt 0.771914 0.789037
vt 0.748388 0.585977
vt 0.872288 0.789037
vt 0.882037 0.926607
vt 0.872288 0.926607
vt 0.089334 0.204318
vt 0.707499 0.628620
vt 0.707499 0.582548
vt 0.748388 0.636648
vt 0.587427 0.985803
vt 0.553525 0.896987
vt 0.587427 0.896987
vt 0.609170 0.031729
vt 0.409381 0.000000
vt 0.036593 0.503900
vt 0.722258 0.300108
vt 0.492289 0.876803
vt 0.001387 0.629205
vt 0.090825 0.723244
vt 0.000000 0.724061
vt 0.089548 0.625729
vt 0.179103 0.724061
vt 0.214172 0.000000
vt 0.267105 0.099091
vt 0.176228 0.106855
vt 0.088194 0.517745
vt 0.177825 0.626546
vt 0.081184 0.732190
vt 0.102129 0.756458
vt 0.077435 0.754321
vt 0.637609 0.664548
vt 0.672554 0.646584
vt 0.627956 0.698558
vt 0.594414 0.536477
vt 0.616011 0.600512
vt 0.126823 0.736139
vt 0.126823 0.758594
vt 0.661755 0.591530
vt 0.961674 0.820218
vt 1.000000 0.842738
vt 0.961481 0.848040
vt 0.987797 0.797682
vt 0.961867 0.792396
vt 0.884815 0.568676
vt 0.855793 0.549571
vt 0.884815 0.546136
vt 0.421454 0.975087
vt 0.451573 0.892505
vt 0.463512 0.975087
vt 0.129989 0.746481
vt 0.156560 0.724061
vt 0.158292 0.746481
vt 0.831176 0.575024
vt 0.826771 0.553005
vt 0.839009 0.379817
vt 0.793202 0.385238
vt 0.126823 0.917301
vt 0.171494 0.917301
vt 0.904816 0.370287
vt 0.853291 0.199562
vt 0.918430 0.199562
vt 0.884815 0.374396
vt 0.087848 0.926312
vt 0.126823 0.929685
vt 0.048873 0.922940
vt 0.633875 0.301021
vt 0.624379 0.318435
vt 0.624379 0.300233
vt 1.000000 0.926708
vt 0.001621 0.724061
vt 0.750293 0.585977
vt 0.314175 0.191300
vt 0.731638 0.896987
vt 0.553525 0.476120
vt 0.759265 0.299207
vt 0.554537 0.836062
vt 0.492289 0.991482
vt 0.179103 0.938950
vt 0.741388 0.836127
vt 0.467193 0.374396
vt 0.707499 0.444334
vt 0.587427 0.896987
vt 0.609854 0.318762
vt 0.544563 0.694076
vt 0.792588 0.000000
vt 0.637609 0.408406
vt 0.421454 0.892505
vt 0.823849 0.789037
vt 0.823849 0.982277
vt 0.956241 0.370303
vt 0.957272 0.000000
vt 0.311778 0.736867
vt 0.979138 0.000000
vt 0.492289 0.694076
vt 0.313904 0.735751
vt 0.090938 0.517745
vt 0.624379 0.000194
vt 0.315187 0.755001
vt 0.000000 0.203617
vt 0.858198 0.789037
vt 0.882037 0.789037
vt 0.553525 0.985803
vt 0.609854 0.064565
vt 0.070436 0.503841
vt 0.635230 0.300233
vt 0.104003 0.734165
vt 0.993899 0.820210
vt 0.857996 0.571850
vt 0.433389 0.892505
vt 0.130405 0.724061
vt 0.863545 0.370287
vt 0.633875 0.317841
vt 0.983347 0.929001
vt 0.000000 0.733629
vt 0.748388 0.576457
vn 0.8701 0.4811 0.1071
vn -0.9574 0.0000 -0.2889
vn -1.0000 0.0000 0.0000
vn 0.0000 1.0000 0.0000
vn -0.4500 0.0000 0.8930
vn 0.9056 0.0000 0.4242
vn 0.9574 0.0000 0.2889
vn 0.4495 -0.0467 -0.8920
vn 0.0000 -1.0000 0.0000
vn 0.8930 0.0000 0.4500
vn -0.8930 0.0000 -0.4500
vn -0.9543 -0.0805 -0.2879
vn 0.8866 -0.1193 0.4468
vn -0.4423 -0.1847 0.8777
vn -0.7823 0.0244 0.6224
vn 0.0000 0.0000 1.0000
vn 0.6388 0.6480 0.4148
vn -0.6515 0.5760 0.4938
vn 0.0000 0.5848 0.8112
vn 0.9925 0.0000 0.1222
vn -0.4493 -0.0549 0.8917
vn 0.1886 -0.0675 -0.9797
vn 0.1460 0.9880 0.0502
vn -0.9950 -0.0999 0.0000
vn 0.8439 0.1099 0.5251
vn 0.8485 -0.2840 0.4466
vn 0.9427 -0.0786 0.3243
vn -0.0019 -1.0000 -0.0007
vn -0.1955 -0.0759 0.9778
vn 0.4474 -0.0891 -0.8899
vn 0.8701 0.4811 -0.1071
vn -0.9574 0.0000 0.2889
vn -0.4500 0.0000 -0.8930
vn 0.8451 -0.0965 -0.5259
vn 0.9574 0.0000 -0.2889
vn 0.4495 -0.0467 0.8920
vn 0.8930 0.0000 -0.4500
vn -0.8930 0.0000 0.4500
vn -0.9543 -0.0805 0.2879
vn 0.9459 -0.1541 -0.2854
vn -0.4423 -0.1847 -0.8777
vn -0.7823 0.0244 -0.6224
vn -0.0000 0.0000 -1.0000
vn 0.6388 0.6480 -0.4148
vn -0.6515 0.5760 -0.4938
vn -0.0000 0.5848 -0.8112
vn 0.9925 0.0000 -0.1222
vn -0.4493 -0.0549 -0.8917
vn 0.1886 -0.0675 0.9797
vn 0.1460 0.9880 -0.0502
vn 0.8439 0.1099 -0.5251
vn 0.8485 -0.2840 -0.4466
vn 0.9056 0.0000 -0.4242
vn 0.9427 -0.0786 -0.3243
vn -0.0019 -1.0000 0.0007
vn -0.1955 -0.0759 -0.9778
vn 0.4474 -0.0891 0.8899
vn -0.9991 -0.0301 0.0287
vn 0.0081 0.9996 0.0261
vn 0.8451 -0.0965 0.5259
vn -0.8866 -0.1193 -0.4468
vn 0.9459 -0.1541 0.2854
vn -0.7969 0.0000 0.6041
vn -0.9991 -0.0301 -0.0287
vn 0.0081 0.9996 -0.0261
vn -0.8866 -0.1193 0.4468
vn 0.8866 -0.1193 -0.4468
vn -0.7969 0.0000 -0.6041
usemtl Light_Grey_Stone.001
s off
f 46/1/1 19/2/1 51/3/1
f 11/4/2 7/5/2 12/6/2
f 4/7/3 64/8/3 6/9/3
f 20/10/4 4/11/4 2/12/4
f 6/9/3 63/13/3 3/14/3
f 5/15/5 3/16/5 1/17/5
f 45/18/6 5/15/6 1/17/6
f 8/19/5 10/20/5 9/21/5
f 12/22/4 8/23/4 13/24/4
f 13/25/7 9/26/7 14/27/7
f 11/28/8 18/29/8 17/30/8
f 6/31/9 14/32/9 11/33/9
f 2/34/10 14/35/10 5/15/10
f 4/11/4 13/24/4 2/12/4
f 6/9/11 12/6/11 4/7/11
f 63/36/9 27/37/9 3/38/9
f 17/39/9 15/40/9 16/41/9
f 11/4/12 16/42/12 10/43/12
f 14/44/13 15/45/13 18/46/13
f 10/20/14 15/47/14 9/21/14
f 2/12/4 19/48/4 20/10/4
f 20/49/15 72/50/15 62/51/15
f 19/52/16 21/53/16 20/54/16
f 71/55/17 22/56/17 90/57/17
f 21/58/18 71/59/18 72/50/18
f 21/53/19 22/60/19 71/61/19
f 46/1/20 22/62/20 19/2/20
f 36/63/21 30/64/21 37/65/21
f 3/38/9 26/66/9 1/67/9
f 1/67/9 25/68/9 45/69/9
f 36/63/21 32/70/21 31/71/21
f 78/72/9 28/73/9 27/37/9
f 82/74/9 25/68/9 28/73/9
f 34/75/9 30/76/9 31/77/9
f 34/75/9 32/78/9 33/79/9
f 38/80/22 33/81/22 39/82/22
f 40/83/23 43/84/23 44/85/23
f 35/86/24 33/87/24 32/88/24
f 38/80/22 29/89/22 34/90/22
f 5/15/25 51/91/25 19/92/25
f 90/93/26 22/94/26 46/95/26
f 19/92/6 2/34/6 5/15/6
f 28/96/22 40/97/22 38/80/22
f 24/98/24 39/99/24 35/86/24
f 23/100/27 40/101/27 25/102/27
f 28/96/22 39/82/22 27/103/22
f 26/104/21 35/105/21 36/63/21
f 26/104/21 37/65/21 23/106/21
f 43/107/27 41/108/27 44/109/27
f 29/110/28 42/111/28 30/76/28
f 37/65/29 42/112/29 43/113/29
f 40/114/30 41/108/30 29/115/30
f 46/1/31 51/3/31 69/116/31
f 54/117/32 58/118/32 59/119/32
f 64/8/3 50/120/3 53/121/3
f 50/122/4 70/123/4 48/124/4
f 63/13/3 53/121/3 49/125/3
f 49/126/33 52/127/33 47/128/33
f 45/129/34 52/130/34 51/3/34
f 57/131/33 55/132/33 56/133/33
f 55/134/4 59/135/4 60/136/4
f 56/137/35 60/138/35 61/139/35
f 58/140/36 68/141/36 61/142/36
f 53/143/9 61/144/9 52/145/9
f 61/139/37 48/146/37 52/130/37
f 60/136/4 50/122/4 48/124/4
f 59/119/38 53/121/38 50/120/38
f 77/147/9 81/148/9 49/149/9
f 67/150/9 65/151/9 68/152/9
f 66/153/39 58/118/39 57/154/39
f 61/139/40 65/155/40 56/137/40
f 65/156/41 57/131/41 56/133/41
f 48/124/4 70/123/4 69/157/4
f 72/158/42 70/159/42 62/160/42
f 73/161/43 69/162/43 70/159/43
f 71/163/44 90/164/44 74/165/44
f 73/161/45 72/158/45 71/166/45
f 73/161/46 71/166/46 74/167/46
f 46/1/47 69/116/47 74/165/47
f 85/168/48 92/169/48 93/170/48
f 76/171/9 80/172/9 47/173/9
f 75/174/9 79/175/9 45/69/9
f 92/169/48 87/176/48 91/177/48
f 78/72/9 83/178/9 82/74/9
f 82/74/9 79/175/9 75/174/9
f 89/179/9 85/180/9 84/181/9
f 87/182/9 89/179/9 88/183/9
f 88/184/49 94/185/49 95/186/49
f 96/187/50 99/188/50 93/189/50
f 91/190/24 88/191/24 95/192/24
f 94/185/49 84/193/49 96/194/49
f 52/130/51 69/116/51 51/3/51
f 90/164/52 46/1/52 74/165/52
f 69/116/53 52/130/53 48/146/53
f 83/195/49 96/194/49 79/196/49
f 77/197/24 95/192/24 81/198/24
f 96/199/54 76/200/54 79/201/54
f 95/186/49 83/195/49 81/202/49
f 80/203/48 91/177/48 77/204/48
f 93/170/48 80/203/48 76/205/48
f 97/206/54 99/207/54 100/208/54
f 98/209/55 84/181/55 85/180/55
f 93/170/56 98/210/56 85/168/56
f 97/211/57 96/194/57 84/193/57
f 11/4/2 10/43/2 7/5/2
f 4/7/58 62/212/58 64/8/58
f 20/10/59 62/213/59 4/11/59
f 6/9/3 64/8/3 63/13/3
f 5/15/5 6/214/5 3/16/5
f 45/18/60 51/91/60 5/15/60
f 8/19/5 7/215/5 10/20/5
f 12/22/4 7/216/4 8/23/4
f 13/25/7 8/217/7 9/26/7
f 11/28/8 14/218/8 18/29/8
f 6/31/9 5/219/9 14/32/9
f 2/34/10 13/220/10 14/35/10
f 4/11/4 12/22/4 13/24/4
f 6/9/11 11/4/11 12/6/11
f 24/221/9 3/38/9 27/37/9
f 63/36/9 78/72/9 27/37/9
f 17/39/9 18/222/9 15/40/9
f 11/4/61 17/223/61 16/42/61
f 14/27/62 9/26/62 15/224/62
f 10/20/14 16/225/14 15/47/14
f 20/49/63 21/58/63 72/50/63
f 19/52/16 22/60/16 21/53/16
f 36/63/21 31/71/21 30/64/21
f 23/226/9 1/67/9 26/66/9
f 3/38/9 24/221/9 26/66/9
f 75/174/9 45/69/9 25/68/9
f 1/67/9 23/226/9 25/68/9
f 36/63/21 35/105/21 32/70/21
f 78/72/9 82/74/9 28/73/9
f 82/74/9 75/174/9 25/68/9
f 34/75/9 29/110/9 30/76/9
f 34/75/9 31/77/9 32/78/9
f 38/80/22 34/90/22 33/81/22
f 40/83/23 37/227/23 43/84/23
f 35/86/24 39/99/24 33/87/24
f 38/80/22 40/97/22 29/89/22
f 28/96/22 25/228/22 40/97/22
f 24/98/24 27/229/24 39/99/24
f 23/100/27 37/230/27 40/101/27
f 28/96/22 38/80/22 39/82/22
f 26/104/21 24/231/21 35/105/21
f 26/104/21 36/63/21 37/65/21
f 43/107/27 42/232/27 41/108/27
f 29/110/28 41/233/28 42/111/28
f 37/65/29 30/64/29 42/112/29
f 40/114/30 44/109/30 41/108/30
f 54/117/32 57/154/32 58/118/32
f 64/8/64 62/212/64 50/120/64
f 50/122/65 62/234/65 70/123/65
f 63/13/3 64/8/3 53/121/3
f 49/126/33 53/235/33 52/127/33
f 45/129/53 47/236/53 52/130/53
f 57/131/33 54/237/33 55/132/33
f 55/134/4 54/238/4 59/135/4
f 56/137/35 55/239/35 60/138/35
f 58/140/36 67/240/36 68/141/36
f 53/143/9 58/241/9 61/144/9
f 61/139/37 60/138/37 48/146/37
f 60/136/4 59/135/4 50/122/4
f 59/119/38 58/118/38 53/121/38
f 63/36/9 49/149/9 81/148/9
f 81/148/9 78/72/9 63/36/9
f 67/150/9 66/242/9 65/151/9
f 66/153/66 67/243/66 58/118/66
f 61/139/67 68/244/67 65/155/67
f 65/156/41 66/245/41 57/131/41
f 72/158/68 73/161/68 70/159/68
f 73/161/43 74/167/43 69/162/43
f 85/168/48 86/246/48 92/169/48
f 49/149/9 47/173/9 80/172/9
f 80/172/9 77/147/9 49/149/9
f 47/173/9 45/69/9 79/175/9
f 79/175/9 76/171/9 47/173/9
f 92/169/48 86/246/48 87/176/48
f 78/72/9 81/148/9 83/178/9
f 82/74/9 83/178/9 79/175/9
f 89/179/9 86/247/9 85/180/9
f 87/182/9 86/247/9 89/179/9
f 88/184/49 89/248/49 94/185/49
f 96/187/50 100/249/50 99/188/50
f 91/190/24 87/250/24 88/191/24
f 94/185/49 89/248/49 84/193/49
f 83/195/49 94/185/49 96/194/49
f 77/197/24 91/190/24 95/192/24
f 96/199/54 93/251/54 76/200/54
f 95/186/49 94/185/49 83/195/49
f 80/203/48 92/169/48 91/177/48
f 93/170/48 92/169/48 80/203/48
f 97/206/54 98/252/54 99/207/54
f 98/209/55 97/253/55 84/181/55
f 93/170/56 99/254/56 98/210/56
f 97/211/57 100/255/57 96/194/57
