# Blender v2.79 (sub 0) OBJ File: 'low_poly_death_house.blend'
# www.blender.org
mtllib dungeon2_walls_COL.mtl
o Cube.515_Cube.873
v 10.555492 2.068607 22.251381
v 10.555492 2.668607 22.251381
v 10.555492 2.068607 3.307875
v 10.555492 2.668607 3.307875
v 10.803417 2.068607 22.251381
v 10.803417 2.668607 22.251381
v 10.803417 2.068607 3.307875
v 10.803417 2.668607 3.307875
v 10.555492 2.068607 3.622474
v 10.555492 2.668607 3.622474
v 10.803417 2.068607 3.622474
v 10.803417 2.668607 3.622474
v -3.229256 2.668607 3.622474
v -3.229256 2.668607 3.307875
v -3.229256 2.068607 3.307875
v -3.229256 2.068607 3.622474
v -2.929587 2.068607 3.307875
v -2.929587 2.668607 3.307875
v -2.929587 2.068607 3.622474
v -2.929587 2.668607 3.622474
v -3.229256 2.668607 22.669365
v -3.229256 2.068607 22.669365
v -2.929587 2.068607 22.669365
v -2.929587 2.668607 22.669365
v -3.229256 2.668607 22.287600
v -2.929587 2.668607 22.287601
v -3.229256 2.068607 22.287600
v -2.929587 2.068607 22.287600
v 10.804032 2.668607 22.669365
v 10.804032 2.068607 22.669365
v 10.804032 2.068607 22.287600
v 10.804032 2.668607 22.287601
vn 0.0000 0.0000 -1.0000
vn 1.0000 0.0000 0.0000
vn 0.0000 0.0000 1.0000
vn 0.0000 -1.0000 0.0000
vn 0.0000 1.0000 0.0000
vn -1.0000 0.0000 0.0000
usemtl Dungeon_Wall
s off
f 17//1 14//1 18//1
f 4//1 7//1 3//1
f 12//2 5//2 11//2
f 6//3 1//3 5//3
f 11//4 1//4 9//4
f 10//5 6//5 12//5
f 4//5 12//5 8//5
f 7//4 9//4 3//4
f 8//2 11//2 7//2
f 2//6 9//6 1//6
f 13//6 15//6 16//6
f 19//4 15//4 17//4
f 26//5 21//5 24//5
f 18//5 13//5 20//5
f 4//5 20//5 10//5
f 10//3 19//3 9//3
f 9//4 17//4 3//4
f 3//1 18//1 4//1
f 24//3 22//3 23//3
f 27//6 21//6 25//6
f 28//4 22//4 27//4
f 24//5 32//5 26//5
f 20//2 28//2 19//2
f 19//4 27//4 16//4
f 16//6 25//6 13//6
f 20//5 25//5 26//5
f 32//2 30//2 31//2
f 28//4 30//4 23//4
f 23//3 29//3 24//3
f 26//1 31//1 28//1
f 17//1 15//1 14//1
f 4//1 8//1 7//1
f 12//2 6//2 5//2
f 6//3 2//3 1//3
f 11//4 5//4 1//4
f 10//5 2//5 6//5
f 4//5 10//5 12//5
f 7//4 11//4 9//4
f 8//2 12//2 11//2
f 2//6 10//6 9//6
f 13//6 14//6 15//6
f 19//4 16//4 15//4
f 26//5 25//5 21//5
f 18//5 14//5 13//5
f 4//5 18//5 20//5
f 10//3 20//3 19//3
f 9//4 19//4 17//4
f 3//1 17//1 18//1
f 24//3 21//3 22//3
f 27//6 22//6 21//6
f 28//4 23//4 22//4
f 24//5 29//5 32//5
f 20//2 26//2 28//2
f 19//4 28//4 27//4
f 16//6 27//6 25//6
f 20//5 13//5 25//5
f 32//2 29//2 30//2
f 28//4 31//4 30//4
f 23//3 30//3 29//3
f 26//1 32//1 31//1
