# Blender v2.82 (sub 7) OBJ File: 'ruins.blend'
# www.blender.org
o collider_Cube.001
v 10.000000 2.923573 -10.000000
v 10.000000 2.923573 10.000000
v -10.000000 2.868255 -10.000000
v -10.000000 2.868255 10.000000
v 4.285715 2.923573 10.000000
v -4.285715 2.868255 10.000000
v -10.000000 2.868255 -4.285715
v -4.285715 2.868255 -10.000000
v 4.285715 0.050000 -10.000000
v 7.142858 2.923573 -7.142858
v 7.142858 2.923573 1.428572
v -4.285715 2.868255 -1.428571
v -7.142858 2.868255 -1.428571
v -7.142858 2.868255 4.285715
v -10.000000 2.868255 -8.095239
v 3.333333 0.050000 10.000000
v -3.333334 0.050000 10.000000
v -3.333333 0.050000 -10.000000
v 5.238096 2.923573 -10.000000
v 7.142858 2.923573 -3.333333
v 7.142858 0.050000 -2.380952
v 7.142858 0.050000 0.476191
v 7.142858 2.923573 2.380953
v 4.285715 2.923573 8.095239
v 4.285715 0.050000 -8.095238
v -4.285715 0.050000 9.047620
v -4.285715 0.050000 -0.476190
v -4.285715 0.050000 6.190477
v -7.142858 0.050000 -0.476190
v -7.142858 0.050000 2.380953
v -7.142858 2.868255 3.333334
v 5.238096 0.050000 -7.142858
v 6.190477 0.050000 -7.142858
v 6.190477 0.050000 1.428572
v -6.190476 2.868255 -1.428571
v -6.190476 0.050000 4.285715
v -8.095238 2.868255 -1.428571
v -8.095238 2.868255 2.380953
v -8.095238 2.868255 -0.476190
v -8.095238 4.068256 -2.380953
v -9.047619 4.068256 -3.333334
v -9.047619 2.868255 -9.047619
v -9.047619 4.068256 -8.095238
v -5.238095 2.868255 6.190477
v -6.190476 0.050000 3.333334
v -5.238095 2.868255 -2.380952
v -6.190476 4.068256 -2.380952
v -5.238095 2.868255 -8.095238
v -6.190476 2.868255 -9.047619
v -6.190476 4.068256 -8.095238
v -2.380952 0.050000 -2.380952
v -3.333333 2.868255 -2.380952
v -2.380952 0.050000 -9.047619
v -3.333333 2.868255 -9.047619
v 6.190477 2.923573 6.190477
v 5.238096 0.050000 6.190477
v 6.190477 0.050000 2.380953
v 6.190477 2.923573 3.333334
v 5.238096 0.050000 3.333334
v 6.190477 0.050000 -3.333333
v 6.190477 2.923573 -8.095238
v 5.238096 2.923573 -8.095238
v 8.095239 2.923573 0.476191
v 8.095239 2.923573 -2.380952
v -5.238096 2.868255 9.047620
v 3.333334 0.050000 8.095239
v -10.000000 2.863494 -3.333334
v 10.000000 -0.432210 -10.000000
v 10.000000 -0.432210 10.000000
v -10.000000 -0.432210 -10.000000
v -10.000000 -0.432210 10.000000
vt 0.555324 0.523864
vt 0.555324 0.556535
vt 0.528910 0.556535
vt 0.283043 0.627736
vt 0.369794 0.349243
vt 0.316966 0.249459
vt 0.092282 0.723431
vt 0.368740 0.748377
vt 0.145110 0.573756
vt 0.079242 0.049892
vt 0.079242 0.000000
vt 0.264139 0.024946
vt 0.085974 0.775302
vt 0.085273 0.675466
vt 0.026414 0.174621
vt 0.645287 0.349242
vt 0.645418 0.374188
vt 0.554691 0.523864
vt 0.581738 0.601777
vt 0.555324 0.598466
vt 0.581738 0.523864
vt 0.645418 0.473972
vt 0.145110 0.723431
vt 0.171524 0.748377
vt 0.365314 0.548810
vt 0.681911 0.449026
vt 0.359449 0.723662
vt 0.813980 0.473972
vt 0.003505 0.898008
vt 0.396208 0.049892
vt 0.554691 0.000000
vt 0.774196 0.473972
vt 0.774196 0.997835
vt 0.681911 0.997835
vt 0.634566 0.523864
vt 0.634566 0.601777
vt 0.359449 0.548771
vt 0.278645 0.553013
vt 0.361893 0.823471
vt 0.281089 0.827714
vt 0.283043 0.802627
vt 0.354563 0.524043
vt 0.007009 0.648549
vt 0.092282 0.550869
vt 0.089478 0.650617
vt 0.907052 0.000000
vt 1.000000 0.000000
vt 1.000000 0.149675
vt 0.361893 0.648581
vt 0.281089 0.652823
vt 0.681911 0.473972
vt 0.250765 0.548810
vt 0.277179 0.573756
vt 0.250754 0.573756
vt 0.998468 0.374188
vt 0.998468 0.523864
vt 0.907052 0.523864
vt 0.118696 0.523864
vt 0.171524 0.548810
vt 0.282555 0.677730
vt 0.316966 0.424080
vt 0.554691 0.523864
vt 0.475450 0.449026
vt 0.501863 0.324297
vt 0.734739 0.324296
vt 0.290552 0.523864
vt 0.091581 0.950126
vt 0.000000 0.274405
vt 0.014019 0.523952
vt 0.000701 0.748210
vt 0.475450 0.224513
vt 0.002804 0.798172
vt 0.088077 0.825265
vt 0.813981 0.124729
vt 0.761153 0.274404
vt 0.920408 0.174621
vt 0.708314 0.000000
vt 0.787555 0.000000
vt 0.787555 0.124729
vt 0.893678 0.349243
vt 0.893678 0.149675
vt 0.907052 0.000000
vt 0.396208 0.000000
vt 0.009112 0.948058
vt 0.090179 1.000000
vt 0.007710 0.997932
vt 0.363847 0.798384
vt 0.588605 0.601777
vt 0.615019 0.678227
vt 0.588605 0.678227
vt 0.085273 0.800240
vt 0.005608 0.823197
vt 0.363359 0.673488
vt 0.002804 0.673399
vt 0.449668 0.573756
vt 0.920408 0.349243
vt 0.277179 0.523864
vt 0.449668 0.748377
vt 0.446242 0.773323
vt 0.588605 0.676615
vt 0.555324 0.601777
vt 0.588605 0.601777
vt 0.502496 0.556535
vt 0.528910 0.631538
vt 0.003505 0.773235
vt 0.363847 0.623494
vt 0.449668 0.631538
vt 0.083170 0.750277
vt 0.422622 0.523864
vt 0.761153 0.174621
vt 0.761141 0.149675
vt 0.085974 0.900076
vt 0.554691 0.000000
vt 0.645418 0.000000
vt 0.681911 0.349242
vt 0.708313 0.149675
vt 0.502496 0.523864
vt 0.009813 0.548801
vt 0.670992 0.673539
vt 0.634566 0.673539
vt 0.634566 0.523864
vt 0.907052 0.523864
vt 0.815515 0.523864
vt 0.815515 0.374188
vt 0.171512 0.723431
vt 0.171512 0.573756
vt 0.368740 0.573756
vt 0.449036 0.174621
vt 0.026414 0.074838
vt 0.052828 0.424080
vt 0.442816 0.523864
vt 0.670992 0.523864
vt 0.813981 0.124729
vt 0.813981 0.000000
vt 0.105655 0.523864
vt 0.026414 0.324297
vt 0.278645 0.727904
vt 0.555324 0.676615
vt 0.422622 0.473972
vt 0.396208 0.249459
vt 0.615019 0.601777
vt 0.449668 0.556535
vt 0.681911 0.473972
vt 0.645418 0.523864
vt 0.365314 0.773323
vn 0.0000 0.6217 0.7833
vn 0.0000 1.0000 0.0000
vn -1.0000 -0.0000 0.0000
vn -0.6885 0.2282 0.6885
vn 1.0000 0.0000 0.0000
vn -0.9492 0.3146 0.0000
vn 0.9474 0.3201 0.0000
vn 0.6877 0.2324 -0.6877
vn 0.6877 0.2324 0.6877
vn 0.0000 0.0000 1.0000
vn -0.7833 0.6217 0.0000
vn -0.6166 0.4894 -0.6166
vn -0.0014 1.0000 -0.0004
vn 0.0000 0.0000 -1.0000
vn 0.0000 0.3146 0.9492
vn -0.6885 0.2282 -0.6885
vn 0.0000 0.6217 -0.7833
vn 0.0000 0.3201 0.9474
vn -0.6166 0.4894 0.6166
vn -0.7845 0.6201 0.0031
vn 0.7833 0.6217 0.0000
vn 0.6166 0.4894 0.6166
vn 0.6166 0.4894 -0.6166
vn -0.0025 1.0000 0.0000
vn -0.6177 0.4883 0.6165
s off
f 40/1/1 37/2/1 13/3/1
f 30/4/2 45/5/2 27/6/2
f 52/7/2 54/8/2 48/9/2
f 25/10/2 9/11/2 53/12/2
f 34/13/2 21/14/2 60/15/2
f 67/16/3 7/17/3 70/18/3
f 25/19/4 32/20/4 62/21/4
f 7/17/3 15/22/3 70/18/3
f 46/23/2 35/24/2 12/25/2
f 65/26/2 44/27/2 4/28/2
f 55/29/2 24/30/2 2/31/2
f 69/32/5 68/33/5 1/34/5
f 19/35/6 9/36/6 25/19/6
f 39/37/7 30/4/7 29/38/7
f 6/39/8 17/40/8 26/41/8
f 13/42/9 39/37/9 29/38/9
f 20/43/6 33/44/6 60/45/6
f 69/46/10 2/47/10 5/48/10
f 31/49/8 45/50/8 30/4/8
f 43/51/11 15/22/11 7/17/11
f 42/52/12 15/53/12 43/54/12
f 6/55/10 4/56/10 71/57/10
f 8/58/2 49/59/2 48/9/2
f 45/5/2 36/60/2 28/61/2
f 1/62/2 10/63/2 64/64/2
f 44/27/2 14/65/2 4/28/2
f 17/66/2 66/67/2 28/61/2
f 34/13/2 22/68/2 21/14/2
f 1/62/2 61/69/2 10/63/2
f 63/70/2 11/71/2 23/72/2
f 28/61/2 59/73/2 27/6/2
f 67/74/13 4/28/13 38/75/13
f 69/46/10 16/76/10 71/57/10
f 14/65/2 31/49/2 38/75/2
f 50/77/2 43/78/2 41/79/2
f 4/28/2 6/39/2 65/26/2
f 18/80/14 9/81/14 68/82/14
f 24/30/2 5/83/2 2/31/2
f 24/84/6 16/85/6 5/86/6
f 6/39/8 26/41/8 65/87/8
f 61/88/15 32/89/15 33/90/15
f 57/91/16 58/92/16 23/72/16
f 45/50/7 31/49/7 14/93/7
f 21/14/4 64/94/4 20/43/4
f 34/13/2 60/15/2 51/95/2
f 16/76/10 17/96/10 71/57/10
f 12/25/2 52/7/2 46/23/2
f 8/58/2 3/97/2 49/59/2
f 54/8/8 53/98/8 18/99/8
f 42/100/17 50/101/17 49/102/17
f 35/103/18 13/3/18 29/104/18
f 28/61/2 26/41/2 17/66/2
f 51/95/7 53/98/7 54/8/7
f 59/73/2 34/13/2 51/95/2
f 11/105/6 34/13/6 57/91/6
f 39/37/7 38/106/7 30/4/7
f 31/49/8 30/4/8 38/106/8
f 35/103/18 29/104/18 27/107/18
f 11/105/6 57/91/6 23/72/6
f 64/94/6 22/108/6 63/70/6
f 64/94/6 21/14/6 22/108/6
f 1/62/2 19/109/2 61/69/2
f 37/110/19 40/111/19 41/79/19
f 56/112/6 55/29/6 58/92/6
f 71/113/3 4/114/3 67/16/3
f 67/16/20 41/115/20 7/17/20
f 41/79/2 47/116/2 50/77/2
f 3/97/2 15/53/2 42/52/2
f 24/84/6 66/67/6 16/85/6
f 13/3/1 35/103/1 47/117/1
f 20/43/6 10/118/6 33/44/6
f 56/112/16 24/84/16 55/29/16
f 54/8/2 8/58/2 48/9/2
f 63/70/2 23/72/2 2/31/2
f 48/119/21 50/120/21 47/121/21
f 22/108/16 11/105/16 63/70/16
f 57/91/16 59/73/16 58/92/16
f 70/122/14 3/123/14 8/124/14
f 46/23/22 47/125/22 35/24/22
f 49/59/23 50/126/23 48/9/23
f 51/95/7 54/8/7 52/127/7
f 10/63/2 20/43/2 64/64/2
f 60/15/2 32/20/2 51/95/2
f 32/20/2 25/10/2 51/95/2
f 39/37/2 13/42/2 37/110/2
f 70/18/3 71/113/3 67/16/3
f 23/72/2 58/128/2 55/29/2
f 60/15/2 33/129/2 32/20/2
f 66/67/2 59/73/2 28/61/2
f 44/27/8 36/60/8 14/93/8
f 70/122/14 18/80/14 68/82/14
f 66/67/2 56/130/2 59/73/2
f 52/127/9 12/25/9 27/131/9
f 51/95/2 27/6/2 59/73/2
f 52/127/9 27/131/9 51/95/9
f 48/119/21 47/121/21 46/132/21
f 19/35/6 25/19/6 62/21/6
f 44/27/7 65/87/7 26/41/7
f 19/133/14 1/134/14 68/82/14
f 39/37/24 67/74/24 38/75/24
f 41/115/11 43/51/11 7/17/11
f 17/66/2 16/135/2 66/67/2
f 56/112/6 58/92/6 59/73/6
f 37/110/24 67/74/24 39/37/24
f 1/62/2 64/64/2 63/70/2
f 59/73/2 57/136/2 34/13/2
f 70/122/14 8/124/14 18/80/14
f 69/46/10 5/48/10 16/76/10
f 3/97/2 42/52/2 49/59/2
f 23/72/2 55/29/2 2/31/2
f 61/69/4 33/44/4 10/118/4
f 9/11/2 18/99/2 53/12/2
f 2/31/2 1/62/2 63/70/2
f 56/112/16 66/67/16 24/84/16
f 9/81/14 19/133/14 68/82/14
f 37/110/25 41/79/25 67/74/25
f 46/23/2 52/7/2 48/9/2
f 44/27/7 26/41/7 28/137/7
f 42/100/17 43/138/17 50/101/17
f 25/10/2 53/12/2 51/95/2
f 47/117/1 40/1/1 13/3/1
f 44/27/8 28/137/8 36/60/8
f 22/108/16 34/13/16 11/105/16
f 41/79/2 40/111/2 47/116/2
f 19/109/2 62/139/2 61/69/2
f 45/5/2 28/61/2 27/6/2
f 29/140/2 30/4/2 27/6/2
f 61/88/15 62/141/15 32/89/15
f 14/65/2 38/75/2 4/28/2
f 27/107/18 12/142/18 35/103/18
f 69/32/5 1/34/5 2/143/5
f 15/22/3 3/144/3 70/18/3
f 17/96/10 6/55/10 71/57/10
f 21/14/4 20/43/4 60/45/4
f 45/50/7 14/93/7 36/60/7
f 54/8/8 18/99/8 8/145/8
