# Blender v2.82 (sub 7) OBJ File: 'ruins.blend'
# www.blender.org
o objects_collider_Cylinder.022
v 5.633947 -0.064778 3.654975
v 5.633947 4.863663 3.654975
v 5.798047 -0.064778 3.671137
v 5.798047 4.863663 3.671137
v 5.955840 -0.064778 3.719003
v 5.955840 4.863663 3.719003
v 6.101263 -0.064778 3.796734
v 6.101263 4.863663 3.796734
v 6.228727 -0.064778 3.901341
v 6.228727 4.863663 3.901341
v 6.333334 -0.064778 4.028805
v 6.333334 4.863663 4.028805
v 6.411064 -0.064778 4.174228
v 6.411064 4.863663 4.174228
v 6.458930 -0.064778 4.332021
v 6.458930 4.863663 4.332021
v 6.475093 -0.064778 4.496121
v 6.475093 4.863663 4.496121
v 6.458930 -0.064778 4.660220
v 6.458930 4.863663 4.660220
v 6.411065 -0.064778 4.818013
v 6.411065 4.863663 4.818013
v 6.333334 -0.064778 4.963437
v 6.333334 4.863663 4.963437
v 6.228727 -0.064778 5.090901
v 6.228727 4.863663 5.090901
v 6.101263 -0.064778 5.195508
v 6.101263 4.863663 5.195508
v 5.955840 -0.064778 5.273238
v 5.955840 4.863663 5.273238
v 5.798046 -0.064778 5.321104
v 5.798046 4.863663 5.321104
v 5.633947 -0.064778 5.337265
v 5.633947 4.863663 5.337265
v 5.469848 -0.064778 5.321104
v 5.469848 4.863663 5.321104
v 5.312054 -0.064778 5.273238
v 5.312054 4.863663 5.273238
v 5.166631 -0.064778 5.195508
v 5.166631 4.863663 5.195508
v 5.039167 -0.064778 5.090900
v 5.039167 4.863663 5.090900
v 4.934560 -0.064778 4.963436
v 4.934560 4.863663 4.963436
v 4.856830 -0.064778 4.818013
v 4.856830 4.863663 4.818013
v 4.808964 -0.064778 4.660219
v 4.808964 4.863663 4.660219
v 4.792801 -0.064778 4.496120
v 4.792801 4.863663 4.496120
v 4.808964 -0.064778 4.332020
v 4.808964 4.863663 4.332020
v 4.856831 -0.064778 4.174227
v 4.856831 4.863663 4.174227
v 4.934561 -0.064778 4.028804
v 4.934561 4.863663 4.028804
v 5.039168 -0.064778 3.901340
v 5.039168 4.863663 3.901340
v 5.166633 -0.064778 3.796733
v 5.166633 4.863663 3.796733
v 5.312056 -0.064778 3.719002
v 5.312056 4.863663 3.719002
v 5.469849 -0.064778 3.671137
v 5.469849 4.863663 3.671137
v 5.650357 6.445242 4.413622
v 5.633947 6.445242 4.412006
v 5.666136 6.445242 4.418408
v 5.680679 6.445242 4.426182
v 5.693425 6.445242 4.436642
v 5.703886 6.445242 4.449389
v 5.711659 6.445242 4.463932
v 5.716445 6.445242 4.479710
v 5.718062 6.445242 4.496121
v 5.716445 6.445242 4.512531
v 5.711659 6.445242 4.528309
v 5.703886 6.445242 4.542852
v 5.693425 6.445242 4.555599
v 5.680679 6.445242 4.566060
v 5.666136 6.445242 4.573832
v 5.650357 6.445242 4.578619
v 5.633947 6.445242 4.580235
v 5.617537 6.445242 4.578619
v 5.601758 6.445242 4.573832
v 5.587215 6.445242 4.566060
v 5.574469 6.445242 4.555599
v 5.564008 6.445242 4.542852
v 5.556235 6.445242 4.528309
v 5.551449 6.445242 4.512531
v 5.549833 6.445242 4.496121
v 5.551449 6.445242 4.479710
v 5.556235 6.445242 4.463932
v 5.564009 6.445242 4.449389
v 5.574469 6.445242 4.436642
v 5.587216 6.445242 4.426182
v 5.601758 6.445242 4.418408
v 5.617537 6.445242 4.413622
vt 0.219740 0.779154
vt 0.192947 0.378720
vt 0.219741 0.378720
vt 0.192945 0.779154
vt 0.166152 0.378720
vt 0.166150 0.779153
vt 0.139357 0.378720
vt 0.139355 0.779153
vt 0.112562 0.378720
vt 0.112560 0.779153
vt 0.085767 0.378720
vt 0.085765 0.779153
vt 0.058972 0.378720
vt 0.058970 0.779153
vt 0.032177 0.378720
vt 0.032175 0.779153
vt 0.005382 0.378720
vt 0.862821 0.779152
vt 0.836023 0.378720
vt 0.862818 0.378719
vt 0.836026 0.779153
vt 0.809229 0.378720
vt 0.809230 0.779153
vt 0.782434 0.378720
vt 0.782435 0.779153
vt 0.755639 0.378720
vt 0.755640 0.779153
vt 0.728844 0.378720
vt 0.728845 0.779153
vt 0.702049 0.378720
vt 0.702050 0.779153
vt 0.675254 0.378720
vt 0.675255 0.779153
vt 0.648459 0.378720
vt 0.648460 0.779153
vt 0.621665 0.378720
vt 0.621665 0.779154
vt 0.594870 0.378721
vt 0.594870 0.779154
vt 0.568075 0.378721
vt 0.568075 0.779154
vt 0.541280 0.378721
vt 0.541280 0.779154
vt 0.514485 0.378721
vt 0.514485 0.779154
vt 0.487690 0.378721
vt 0.487690 0.779154
vt 0.460895 0.378721
vt 0.460895 0.779154
vt 0.434100 0.378721
vt 0.434100 0.779154
vt 0.407306 0.378721
vt 0.407305 0.779154
vt 0.380511 0.378721
vt 0.380510 0.779154
vt 0.353716 0.378721
vt 0.353715 0.779154
vt 0.326921 0.378721
vt 0.326920 0.779154
vt 0.300126 0.378721
vt 0.300125 0.779154
vt 0.273331 0.378721
vt 0.273330 0.779154
vt 0.246536 0.378720
vt 0.246535 0.779154
vt 0.854228 0.897200
vt 0.800416 0.868436
vt 0.829179 0.814624
vt 0.824844 0.169354
vt 0.830597 0.152081
vt 0.847870 0.157899
vt 0.005380 0.779153
vt 0.837475 0.812974
vt 0.862043 0.817861
vt 0.845933 0.812974
vt 0.854228 0.814624
vt 0.869075 0.822560
vt 0.875056 0.828541
vt 0.879755 0.835573
vt 0.882992 0.843387
vt 0.884642 0.851683
vt 0.884642 0.860141
vt 0.882992 0.868436
vt 0.879755 0.876251
vt 0.875056 0.883283
vt 0.869075 0.889264
vt 0.862043 0.893963
vt 0.845933 0.898850
vt 0.821365 0.893963
vt 0.837475 0.898850
vt 0.829179 0.897200
vt 0.814333 0.889264
vt 0.808352 0.883283
vt 0.803653 0.876251
vt 0.798766 0.860141
vt 0.798766 0.851683
vt 0.800416 0.843387
vt 0.803653 0.835573
vt 0.808352 0.828541
vt 0.814333 0.822560
vt 0.821365 0.817861
vt 0.823929 0.166993
vt 0.823496 0.164501
vt 0.823562 0.161974
vt 0.824124 0.159511
vt 0.825153 0.157204
vt 0.826615 0.155146
vt 0.828454 0.153416
vt 0.832958 0.151180
vt 0.835449 0.150760
vt 0.837973 0.150839
vt 0.840433 0.151414
vt 0.842742 0.152445
vt 0.844802 0.153910
vt 0.846533 0.155752
vt 0.848776 0.160260
vt 0.849200 0.162752
vt 0.849124 0.165279
vt 0.848554 0.167743
vt 0.847527 0.170053
vt 0.846066 0.172114
vt 0.844229 0.173848
vt 0.842086 0.175186
vt 0.839729 0.176091
vt 0.837240 0.176514
vt 0.834717 0.176439
vt 0.832257 0.175869
vt 0.829956 0.174828
vt 0.827904 0.173354
vt 0.826175 0.171506
vt -0.047714 0.157228
vt -0.001629 0.012807
vt -0.016113 0.163509
vt 0.163545 -0.016115
vt 0.012778 0.001648
vt 0.012853 -0.000880
vt -0.016101 -0.163521
vt -0.003389 -0.012452
vt -0.047697 -0.157233
vt -0.144942 0.077460
vt -0.010171 0.007875
vt -0.127051 0.104236
vt 0.104246 0.127008
vt 0.009719 0.008483
vt 0.127029 0.104231
vt 0.104253 -0.127027
vt 0.006395 -0.011187
vt 0.077466 -0.144920
vt -0.144918 -0.077432
vt -0.012222 -0.004121
vt -0.157248 -0.047671
vt 0.000894 0.012882
vt 0.016106 0.163507
vt 0.012430 -0.003372
vt 0.157260 -0.047710
vt -0.005750 -0.011551
vt -0.077454 -0.144903
vt -0.008443 0.009722
vt -0.104272 0.127008
vt 0.011180 0.006421
vt 0.144929 0.077449
vt 0.004087 -0.012218
vt 0.047709 -0.157242
vt -0.163535 -0.016076
vt -0.012784 -0.001658
vt 0.003382 0.012459
vt 0.047701 0.157222
vt 0.011523 -0.005733
vt 0.144936 -0.077466
vt -0.007893 -0.010216
vt -0.104239 -0.127003
vt -0.006391 0.011197
vt -0.077482 0.144903
vt 0.012207 0.004111
vt 0.157259 0.047696
vt 0.001627 -0.012792
vt 0.016114 -0.163523
vt -0.157257 0.047718
vt -0.012850 0.000869
vt -0.012418 0.003362
vt -0.163537 0.016134
vt 0.005739 0.011555
vt 0.077460 0.144901
vt 0.010187 -0.007880
vt 0.127036 -0.104250
vt -0.009731 -0.008486
vt -0.127019 -0.104220
vt -0.004089 0.012238
vt 0.163545 0.016101
vt -0.000898 -0.012871
vt -0.011503 0.005722
vt 0.007882 0.010217
vt 0.008455 -0.009722
vt -0.011194 -0.006427
vn 0.0000 0.2184 -0.9758
vn 0.1420 -0.6857 -0.7139
vn 0.0000 -0.6857 -0.7279
vn 0.1904 0.2184 -0.9571
vn 0.2785 -0.6857 -0.6725
vn 0.3734 0.2184 -0.9015
vn 0.4044 -0.6857 -0.6052
vn 0.5421 0.2184 -0.8114
vn 0.5147 -0.6857 -0.5147
vn 0.6900 0.2184 -0.6900
vn 0.6052 -0.6857 -0.4044
vn 0.8114 0.2184 -0.5421
vn 0.6725 -0.6857 -0.2785
vn 0.9015 0.2184 -0.3734
vn 0.7139 -0.6857 -0.1420
vn 0.9571 0.2184 -0.1904
vn 0.7279 -0.6857 0.0000
vn 0.9758 0.2184 0.0000
vn 0.7139 -0.6857 0.1420
vn 0.9571 0.2184 0.1904
vn 0.6725 -0.6857 0.2785
vn 0.9015 0.2184 0.3734
vn 0.6052 -0.6857 0.4044
vn 0.8114 0.2184 0.5421
vn 0.5147 -0.6857 0.5147
vn 0.6900 0.2184 0.6900
vn 0.4044 -0.6857 0.6052
vn 0.5421 0.2184 0.8114
vn 0.2785 -0.6857 0.6725
vn 0.3734 0.2184 0.9015
vn 0.1420 -0.6857 0.7139
vn 0.1904 0.2184 0.9571
vn 0.0000 -0.6857 0.7279
vn 0.0000 0.2184 0.9758
vn -0.1420 -0.6857 0.7139
vn -0.1904 0.2184 0.9571
vn -0.2785 -0.6857 0.6725
vn -0.3734 0.2184 0.9015
vn -0.4044 -0.6857 0.6052
vn -0.5421 0.2184 0.8114
vn -0.5147 -0.6857 0.5147
vn -0.6900 0.2184 0.6900
vn -0.6052 -0.6857 0.4044
vn -0.8114 0.2184 0.5421
vn -0.6725 -0.6857 0.2785
vn -0.9015 0.2184 0.3734
vn -0.7139 -0.6857 0.1420
vn -0.9571 0.2184 0.1904
vn -0.7279 -0.6857 0.0000
vn -0.9758 0.2184 0.0000
vn -0.7139 -0.6857 -0.1420
vn -0.9571 0.2184 -0.1904
vn -0.6725 -0.6857 -0.2785
vn -0.9015 0.2184 -0.3734
vn -0.6052 -0.6857 -0.4044
vn -0.8114 0.2184 -0.5421
vn -0.5147 -0.6857 -0.5147
vn -0.6900 0.2184 -0.6900
vn -0.4044 -0.6857 -0.6052
vn -0.5421 0.2184 -0.8114
vn -0.2785 -0.6857 -0.6725
vn -0.3734 0.2184 -0.9015
vn -0.1420 -0.6857 -0.7139
vn -0.1904 0.2184 -0.9571
vn 0.2128 0.8311 -0.5137
vn -0.5137 0.8311 -0.2128
vn -0.2127 0.8311 0.5137
vn 0.1085 0.8311 -0.5453
vn 0.0000 0.8311 -0.5560
vn -0.1085 0.8311 -0.5454
vn -0.2128 0.8311 -0.5137
vn -0.3089 0.8311 -0.4623
vn -0.3932 0.8311 -0.3932
vn -0.4623 0.8311 -0.3089
vn -0.5454 0.8311 -0.1085
vn -0.5560 0.8311 0.0000
vn -0.5454 0.8311 0.1085
vn -0.5137 0.8311 0.2128
vn -0.4623 0.8311 0.3088
vn -0.3932 0.8312 0.3931
vn -0.3089 0.8311 0.4623
vn -0.1085 0.8311 0.5453
vn 0.0000 0.8311 0.5560
vn 0.1085 0.8311 0.5454
vn 0.2128 0.8311 0.5137
vn 0.3089 0.8311 0.4623
vn 0.3932 0.8311 0.3931
vn 0.4624 0.8311 0.3088
vn 0.5137 0.8311 0.2128
vn 0.5454 0.8311 0.1085
vn 0.5560 0.8311 0.0000
vn 0.5453 0.8311 -0.1085
vn 0.5137 0.8311 -0.2128
vn 0.4624 0.8312 -0.3088
vn 0.3932 0.8311 -0.3932
vn 0.3089 0.8311 -0.4623
s 1
f 2/1/1 3/2/2 1/3/3
f 4/4/4 5/5/5 3/2/2
f 6/6/6 7/7/7 5/5/5
f 8/8/8 9/9/9 7/7/7
f 10/10/10 11/11/11 9/9/9
f 12/12/12 13/13/13 11/11/11
f 14/14/14 15/15/15 13/13/13
f 16/16/16 17/17/17 15/15/15
f 18/18/18 19/19/19 17/20/17
f 20/21/20 21/22/21 19/19/19
f 22/23/22 23/24/23 21/22/21
f 24/25/24 25/26/25 23/24/23
f 26/27/26 27/28/27 25/26/25
f 28/29/28 29/30/29 27/28/27
f 30/31/30 31/32/31 29/30/29
f 32/33/32 33/34/33 31/32/31
f 34/35/34 35/36/35 33/34/33
f 36/37/36 37/38/37 35/36/35
f 38/39/38 39/40/39 37/38/37
f 40/41/40 41/42/41 39/40/39
f 42/43/42 43/44/43 41/42/41
f 44/45/44 45/46/45 43/44/43
f 46/47/46 47/48/47 45/46/45
f 48/49/48 49/50/49 47/48/47
f 50/51/50 51/52/51 49/50/49
f 52/53/52 53/54/53 51/52/51
f 54/55/54 55/56/55 53/54/53
f 56/57/56 57/58/57 55/56/55
f 58/59/58 59/60/59 57/58/57
f 60/61/60 61/62/61 59/60/59
f 62/63/62 63/64/63 61/62/61
f 64/65/64 1/3/3 63/64/63
f 31/66/31 47/67/47 63/68/63
f 67/69/65 91/70/66 83/71/67
f 2/1/1 4/4/4 3/2/2
f 4/4/4 6/6/6 5/5/5
f 6/6/6 8/8/8 7/7/7
f 8/8/8 10/10/10 9/9/9
f 10/10/10 12/12/12 11/11/11
f 12/12/12 14/14/14 13/13/13
f 14/14/14 16/16/16 15/15/15
f 16/16/16 18/72/18 17/17/17
f 18/18/18 20/21/20 19/19/19
f 20/21/20 22/23/22 21/22/21
f 22/23/22 24/25/24 23/24/23
f 24/25/24 26/27/26 25/26/25
f 26/27/26 28/29/28 27/28/27
f 28/29/28 30/31/30 29/30/29
f 30/31/30 32/33/32 31/32/31
f 32/33/32 34/35/34 33/34/33
f 34/35/34 36/37/36 35/36/35
f 36/37/36 38/39/38 37/38/37
f 38/39/38 40/41/40 39/40/39
f 40/41/40 42/43/42 41/42/41
f 42/43/42 44/45/44 43/44/43
f 44/45/44 46/47/46 45/46/45
f 46/47/46 48/49/48 47/48/47
f 48/49/48 50/51/50 49/50/49
f 50/51/50 52/53/52 51/52/51
f 52/53/52 54/55/54 53/54/53
f 54/55/54 56/57/56 55/56/55
f 56/57/56 58/59/58 57/58/57
f 58/59/58 60/61/60 59/60/59
f 60/61/60 62/63/62 61/62/61
f 62/63/62 64/65/64 63/64/63
f 64/65/64 2/1/1 1/3/3
f 63/68/63 1/73/3 7/74/7
f 1/73/3 3/75/2 7/74/7
f 3/75/2 5/76/5 7/74/7
f 7/74/7 9/77/9 11/78/11
f 11/78/11 13/79/13 7/74/7
f 13/79/13 15/80/15 7/74/7
f 15/80/15 17/81/17 19/82/19
f 19/82/19 21/83/21 23/84/23
f 23/84/23 25/85/25 27/86/27
f 27/86/27 29/87/29 23/84/23
f 29/87/29 31/66/31 23/84/23
f 31/66/31 33/88/33 39/89/39
f 33/88/33 35/90/35 39/89/39
f 35/90/35 37/91/37 39/89/39
f 39/89/39 41/92/41 47/67/47
f 41/92/41 43/93/43 47/67/47
f 43/93/43 45/94/45 47/67/47
f 47/67/47 49/95/49 51/96/51
f 51/96/51 53/97/53 55/98/55
f 55/98/55 57/99/57 59/100/59
f 59/100/59 61/101/61 63/68/63
f 15/80/15 19/82/19 31/66/31
f 19/82/19 23/84/23 31/66/31
f 47/67/47 51/96/51 63/68/63
f 51/96/51 55/98/55 63/68/63
f 55/98/55 59/100/59 63/68/63
f 63/68/63 7/74/7 31/66/31
f 7/74/7 15/80/15 31/66/31
f 31/66/31 39/89/39 47/67/47
f 67/69/65 65/102/68 91/70/66
f 65/102/68 66/103/69 96/104/70
f 96/104/70 95/105/71 94/106/72
f 94/106/72 93/107/73 96/104/70
f 93/107/73 92/108/74 91/70/66
f 91/70/66 90/109/75 89/110/76
f 89/110/76 88/111/77 87/112/78
f 87/112/78 86/113/79 83/71/67
f 86/113/79 85/114/80 83/71/67
f 85/114/80 84/115/81 83/71/67
f 83/71/67 82/116/82 81/117/83
f 81/117/83 80/118/84 79/119/85
f 79/119/85 78/120/86 77/121/87
f 77/121/87 76/122/88 75/123/89
f 75/123/89 74/124/90 73/125/91
f 73/125/91 72/126/92 71/127/93
f 71/127/93 70/128/94 69/129/95
f 69/129/95 68/130/96 71/127/93
f 68/130/96 67/69/65 83/71/67
f 71/127/93 68/130/96 83/71/67
f 65/102/68 96/104/70 91/70/66
f 91/70/66 96/104/70 93/107/73
f 91/70/66 89/110/76 87/112/78
f 83/71/67 81/117/83 75/123/89
f 81/117/83 79/119/85 75/123/89
f 79/119/85 77/121/87 75/123/89
f 75/123/89 73/125/91 71/127/93
f 91/70/66 87/112/78 83/71/67
f 75/123/89 71/127/93 83/71/67
f 14/131/14 72/132/92 16/133/16
f 34/134/34 80/135/84 81/136/83
f 50/137/50 90/138/75 52/139/52
f 6/140/6 68/141/96 8/142/8
f 24/143/24 77/144/87 26/145/26
f 42/146/42 86/147/79 44/148/44
f 60/149/60 95/150/71 62/151/62
f 16/133/16 73/152/91 18/153/18
f 34/134/34 82/154/82 36/155/36
f 52/139/52 91/156/66 54/157/54
f 8/142/8 69/158/95 10/159/10
f 26/145/26 78/160/86 28/161/28
f 44/148/44 87/162/78 46/163/46
f 64/164/64 95/150/71 96/165/70
f 18/153/18 74/166/90 20/167/20
f 36/155/36 83/168/67 38/169/38
f 54/157/54 92/170/74 56/171/56
f 10/159/10 70/172/94 12/173/12
f 28/161/28 79/174/85 30/175/30
f 46/163/46 88/176/77 48/177/48
f 4/178/4 66/179/69 65/180/68
f 64/164/64 66/179/69 2/181/1
f 20/167/20 75/182/89 22/183/22
f 38/169/38 84/184/81 40/185/40
f 56/171/56 93/186/73 58/187/58
f 12/173/12 71/188/93 14/131/14
f 30/175/30 80/135/84 32/189/32
f 48/177/48 89/190/76 50/137/50
f 4/178/4 67/191/65 6/140/6
f 22/183/22 76/192/88 24/143/24
f 40/185/40 85/193/80 42/146/42
f 60/149/60 93/186/73 94/194/72
f 14/131/14 71/188/93 72/132/92
f 34/134/34 32/189/32 80/135/84
f 50/137/50 89/190/76 90/138/75
f 6/140/6 67/191/65 68/141/96
f 24/143/24 76/192/88 77/144/87
f 42/146/42 85/193/80 86/147/79
f 60/149/60 94/194/72 95/150/71
f 16/133/16 72/132/92 73/152/91
f 34/134/34 81/136/83 82/154/82
f 52/139/52 90/138/75 91/156/66
f 8/142/8 68/141/96 69/158/95
f 26/145/26 77/144/87 78/160/86
f 44/148/44 86/147/79 87/162/78
f 64/164/64 62/151/62 95/150/71
f 18/153/18 73/152/91 74/166/90
f 36/155/36 82/154/82 83/168/67
f 54/157/54 91/156/66 92/170/74
f 10/159/10 69/158/95 70/172/94
f 28/161/28 78/160/86 79/174/85
f 46/163/46 87/162/78 88/176/77
f 4/178/4 2/181/1 66/179/69
f 64/164/64 96/165/70 66/179/69
f 20/167/20 74/166/90 75/182/89
f 38/169/38 83/168/67 84/184/81
f 56/171/56 92/170/74 93/186/73
f 12/173/12 70/172/94 71/188/93
f 30/175/30 79/174/85 80/135/84
f 48/177/48 88/176/77 89/190/76
f 4/178/4 65/180/68 67/191/65
f 22/183/22 75/182/89 76/192/88
f 40/185/40 84/184/81 85/193/80
f 60/149/60 58/187/58 93/186/73
