# Blender v2.79 (sub 0) OBJ File: 'low_poly_death_house.blend'
# www.blender.org
o Cube.514_Cube.862
v -3.287728 0.062398 22.700827
v -3.287728 2.062398 22.700827
v -3.287728 0.062398 3.331549
v -3.287728 2.062398 3.331549
v 10.812633 0.062398 22.700827
v 9.060233 2.062398 18.759809
v 10.812633 0.062398 3.331549
v 10.812633 2.062398 3.331549
v -3.287728 2.062398 8.942297
v -1.702048 2.062398 3.331549
v 9.060233 2.062398 11.468076
v 1.823849 2.062398 18.759809
v 1.823850 2.062398 11.468076
v -3.287728 3.151142 8.942297
v -3.287728 3.151142 3.331549
v -1.702048 3.151142 3.331549
v -1.702048 3.151142 8.942297
v -3.287728 3.151142 7.787294
v -3.287728 4.021036 8.942297
v -1.702048 3.151142 7.787294
v -1.702048 4.021036 8.942297
v -1.702048 4.021036 7.787294
v -3.287728 4.021036 7.787294
v 10.812633 2.062398 8.942297
v 10.812633 2.062398 22.700827
v -1.702048 2.062398 22.700827
v -1.702048 2.062398 8.942297
v 10.301293 2.062398 10.256123
v 10.301293 2.062398 19.971762
v 0.637307 2.062398 19.971764
v 0.637308 2.062398 10.256123
v 1.823849 2.062398 10.256123
v 6.676814 2.062398 11.468076
v 6.676813 2.062398 10.256123
v 1.823849 2.062398 19.971764
v 6.717260 2.062398 18.759809
v 6.717260 2.062398 19.971762
v 3.168611 2.062398 10.256123
v 3.168612 2.062398 8.942297
v 4.282759 2.062398 10.256123
v 4.282758 2.062398 8.942297
v 5.132162 2.062398 19.971762
v 3.312016 2.062398 19.971764
v 2.936955 2.062398 20.707588
v 3.212735 2.062398 21.733486
v 3.797388 2.062398 22.229889
v 4.779163 2.062398 22.229889
v 5.518253 2.062398 21.601112
v 5.518253 2.062398 20.442841
v 9.060233 0.937631 11.468076
v 9.060233 0.937631 18.759809
v 6.717260 0.937631 18.759809
v 1.823849 0.937631 18.759809
v 1.823850 0.937631 11.468076
v 6.676814 0.937631 11.468076
v 1.823849 0.937631 10.256123
v 4.282759 0.937631 10.256123
v 6.676813 0.937631 10.256123
v 3.312016 0.937631 19.971764
v 1.823849 0.937631 19.971764
v 6.717260 0.937631 19.971762
v 3.168611 0.937631 10.256123
v 3.168612 0.937631 8.942297
v 4.282758 0.937631 8.942297
v 5.132162 0.937631 19.971762
v 2.936955 0.937631 20.707588
v 3.212735 0.937631 21.733486
v 3.797388 0.937631 22.229889
v 4.779163 0.937631 22.229889
v 5.518253 0.937631 21.601112
v 5.518253 0.937631 20.442841
vt 0.666141 0.116481
vt 0.667443 0.047202
vt 0.827296 0.119512
vt 0.763774 0.300753
vt 0.773474 0.300753
vt 0.763774 0.395596
vt 0.989341 0.155432
vt 0.948950 0.155432
vt 0.989341 0.002314
vt 0.664076 0.226288
vt 0.665909 0.128830
vt 0.825232 0.229318
vt 0.850207 0.395596
vt 0.763774 0.490439
vt 0.685358 0.461023
vt 0.608856 0.991255
vt 0.608856 0.461023
vt 0.745349 0.825037
vt 0.754657 0.710229
vt 0.754657 0.825037
vt 0.608856 0.244793
vt 0.373868 0.461022
vt 0.320116 0.461022
vt 0.375667 0.541339
vt 0.288171 0.527341
vt 0.375899 0.528991
vt 0.855347 0.789837
vt 0.833461 0.978414
vt 0.831829 0.790041
vt 0.944031 0.553286
vt 0.829785 0.554276
vt 0.579824 0.039736
vt 0.667975 0.018949
vt 0.773474 0.249123
vt 0.925114 0.970391
vt 0.958102 0.896345
vt 0.958102 0.970391
vt 0.888052 0.966878
vt 0.905544 0.930681
vt 0.905544 0.966878
vt 0.706880 0.461879
vt 0.739802 0.321879
vt 0.739803 0.461879
vt 0.579715 0.045552
vt 0.509730 0.038418
vt 0.287938 0.539690
vt 0.218077 0.526023
vt 0.029749 0.886081
vt 0.005079 0.461022
vt 0.029749 0.511655
vt 0.343533 0.973106
vt 0.296166 0.973106
vt 0.495992 0.886082
vt 0.438747 0.511655
vt 0.495992 0.511655
vt 0.089624 0.839374
vt 0.089624 0.558362
vt 0.202662 0.886081
vt 0.438747 0.839375
vt 0.438747 0.558362
vt 0.775144 0.961998
vt 0.712056 0.886278
vt 0.775670 0.886278
vt 0.130336 0.810182
vt 0.144280 0.577175
vt 0.144280 0.810182
vt 0.204614 0.511655
vt 0.438747 0.886081
vt 0.716913 0.825037
vt 0.745349 0.710229
vt 0.189279 0.812226
vt 0.210195 0.631206
vt 0.210195 0.812226
vt 0.320116 0.511655
vt 0.987657 0.253138
vt 0.872849 0.224829
vt 0.987657 0.224829
vt 0.775144 0.974583
vt 0.744022 0.974583
vt 0.731402 0.873693
vt 0.755064 0.873693
vt 0.729538 0.988226
vt 0.744022 0.988226
vt 0.750475 0.850244
vt 0.760083 0.856774
vt 0.110066 0.810182
vt 0.130336 0.577175
vt 0.106426 0.204430
vt 0.126308 0.023411
vt 0.126308 0.204430
vt 0.988043 0.343558
vt 0.957144 0.524577
vt 0.957144 0.343558
vt 0.386757 0.860547
vt 0.398423 0.679528
vt 0.398423 0.860547
vt 0.221405 0.861640
vt 0.239746 0.680621
vt 0.239746 0.861640
vt 0.378626 0.058435
vt 0.196565 0.052344
vt 0.377024 0.038114
vt 0.987657 0.314206
vt 0.872849 0.300973
vt 0.987657 0.300973
vt 0.340330 0.617672
vt 0.225522 0.561670
vt 0.340330 0.561670
vt 0.927829 0.335376
vt 0.879183 0.516396
vt 0.879183 0.335376
vt 0.379880 0.074330
vt 0.198167 0.072665
vt 0.706822 0.825037
vt 0.716913 0.710229
vt 0.165276 0.797401
vt 0.176925 0.616382
vt 0.176925 0.797401
vt 0.350094 0.861640
vt 0.368434 0.680621
vt 0.368434 0.861640
vt 0.627791 0.437631
vt 0.660702 0.256611
vt 0.660702 0.437631
vt 0.350094 0.680621
vt 0.146074 0.206901
vt 0.158263 0.025881
vt 0.158263 0.206901
vt 0.154533 0.797401
vt 0.165276 0.616382
vt 0.829130 0.021980
vt 0.850036 0.395596
vt 0.850036 0.300753
vt 0.849904 0.002314
vt 0.849904 0.155432
vt 0.850207 0.490439
vt 0.685358 0.991255
vt 0.005079 0.244793
vt 0.856980 0.978210
vt 0.946075 0.789051
vt 0.580246 0.017300
vt 0.763774 0.249123
vt 0.925114 0.896345
vt 0.888052 0.930681
vt 0.706880 0.321879
vt 0.509621 0.044234
vt 0.217844 0.538372
vt 0.005079 0.991255
vt 0.279136 0.886081
vt 0.260509 0.904236
vt 0.260509 0.948874
vt 0.371740 0.953975
vt 0.385045 0.914439
vt 0.366950 0.886081
vt 0.373868 0.511655
vt 0.202662 0.839374
vt 0.806128 0.886278
vt 0.806128 0.961997
vt 0.712056 0.961998
vt 0.204613 0.558362
vt 0.987657 0.290882
vt 0.872849 0.290882
vt 0.872849 0.262446
vt 0.085509 0.204430
vt 0.085509 0.023411
vt 0.106425 0.023411
vt 0.872849 0.253138
vt 0.729538 0.974583
vt 0.712056 0.974583
vt 0.775670 0.873693
vt 0.712056 0.873693
vt 0.737712 0.850244
vt 0.726526 0.866052
vt 0.730112 0.855399
vt 0.760083 0.868801
vt 0.110066 0.577175
vt 0.988043 0.524577
vt 0.195648 0.040714
vt 0.038572 0.206901
vt 0.038572 0.025881
vt 0.056913 0.025881
vt 0.872849 0.314206
vt 0.225522 0.617672
vt 0.927830 0.516396
vt 0.199421 0.088560
vt 0.706823 0.710229
vt 0.627791 0.256611
vt 0.146074 0.025881
vt 0.154533 0.616382
vn -1.0000 0.0000 0.0000
vn 0.0000 0.0000 -1.0000
vn 1.0000 0.0000 0.0000
vn 0.0000 0.0000 1.0000
vn 0.0000 -1.0000 0.0000
vn 0.0000 1.0000 0.0000
vn 0.8909 0.0000 0.4541
vn 0.9657 0.0000 -0.2596
vn 0.6472 0.0000 -0.7623
vn -0.6480 0.0000 -0.7617
vn -0.7734 0.0000 0.6339
s off
f 2/1/1 9/2/1 1/3/1
f 4/4/2 10/5/2 3/6/2
f 8/7/3 24/8/3 7/9/3
f 25/10/4 26/11/4 5/12/4
f 7/13/5 1/14/5 3/6/5
f 9/15/6 26/16/6 27/17/6
f 34/18/1 55/19/1 33/20/1
f 10/21/6 39/22/6 41/23/6
f 27/24/4 14/25/4 9/26/4
f 20/27/3 21/28/3 17/29/3
f 10/30/3 20/27/3 27/31/3
f 9/2/1 18/32/1 4/33/1
f 4/4/2 16/34/2 10/5/2
f 15/35/6 20/36/6 16/37/6
f 22/38/6 19/39/6 21/40/6
f 18/41/2 22/42/2 20/43/2
f 14/44/1 23/45/1 18/32/1
f 17/46/4 19/47/4 14/25/4
f 29/48/6 24/49/6 28/50/6
f 46/51/6 26/16/6 47/52/6
f 30/53/6 27/17/6 26/16/6
f 32/54/6 39/22/6 31/55/6
f 6/56/6 28/50/6 11/57/6
f 6/56/6 37/58/6 29/48/6
f 12/59/6 31/55/6 30/53/6
f 13/60/6 32/54/6 31/55/6
f 55/61/6 53/62/6 52/63/6
f 44/64/7 59/65/7 43/66/7
f 34/67/6 11/57/6 28/50/6
f 35/68/6 12/59/6 30/53/6
f 40/69/4 58/70/4 34/18/4
f 32/71/4 62/72/4 38/73/4
f 40/74/6 34/67/6 41/23/6
f 33/75/4 50/76/4 11/77/4
f 55/61/6 58/78/6 57/79/6
f 53/62/6 59/80/6 65/81/6
f 63/82/6 57/79/6 64/83/6
f 69/84/6 70/85/6 65/81/6
f 45/86/8 66/87/8 44/64/8
f 38/88/3 63/89/3 39/90/3
f 43/91/2 60/92/2 35/93/2
f 46/94/9 67/95/9 45/96/9
f 35/97/3 53/98/3 12/99/3
f 47/100/2 68/101/2 46/102/2
f 39/103/4 64/104/4 41/105/4
f 11/106/1 51/107/1 6/108/1
f 6/109/2 52/110/2 36/111/2
f 48/112/10 69/113/10 47/100/10
f 41/114/1 57/115/1 40/69/1
f 49/116/1 70/117/1 48/118/1
f 13/119/3 56/120/3 32/121/3
f 37/122/2 65/123/2 42/124/2
f 12/99/3 54/125/3 13/119/3
f 36/126/1 61/127/1 37/128/1
f 42/129/11 71/130/11 49/116/11
f 3/131/1 1/3/1 9/2/1
f 9/2/1 4/33/1 3/131/1
f 7/132/2 3/6/2 10/5/2
f 10/5/2 8/133/2 7/132/2
f 5/134/3 7/9/3 24/8/3
f 24/8/3 25/135/3 5/134/3
f 1/3/4 5/12/4 26/11/4
f 26/11/4 2/1/4 1/3/4
f 7/13/5 5/136/5 1/14/5
f 9/15/6 2/137/6 26/16/6
f 34/18/1 58/70/1 55/19/1
f 24/49/6 8/138/6 41/23/6
f 10/21/6 27/17/6 39/22/6
f 41/23/6 8/138/6 10/21/6
f 27/24/4 17/46/4 14/25/4
f 20/27/3 22/139/3 21/28/3
f 17/29/3 27/31/3 20/27/3
f 10/30/3 16/140/3 20/27/3
f 15/141/1 4/33/1 18/32/1
f 9/2/1 14/44/1 18/32/1
f 4/4/2 15/142/2 16/34/2
f 15/35/6 18/143/6 20/36/6
f 22/38/6 23/144/6 19/39/6
f 18/41/2 23/145/2 22/42/2
f 14/44/1 19/146/1 23/45/1
f 17/46/4 21/147/4 19/47/4
f 29/48/6 25/148/6 24/49/6
f 25/148/6 29/48/6 37/58/6
f 37/58/6 42/149/6 49/150/6
f 37/58/6 49/150/6 48/151/6
f 35/68/6 30/53/6 45/152/6
f 44/153/6 43/154/6 35/68/6
f 45/152/6 44/153/6 35/68/6
f 25/148/6 37/58/6 48/151/6
f 25/148/6 48/151/6 47/52/6
f 45/152/6 30/53/6 26/16/6
f 25/148/6 47/52/6 26/16/6
f 46/51/6 45/152/6 26/16/6
f 30/53/6 31/55/6 27/17/6
f 27/17/6 31/55/6 39/22/6
f 32/54/6 38/155/6 39/22/6
f 6/56/6 29/48/6 28/50/6
f 6/56/6 36/156/6 37/58/6
f 12/59/6 13/60/6 31/55/6
f 51/157/6 50/158/6 52/63/6
f 55/61/6 54/159/6 53/62/6
f 52/63/6 50/158/6 55/61/6
f 44/64/7 66/87/7 59/65/7
f 34/67/6 33/160/6 11/57/6
f 40/161/4 57/162/4 58/163/4
f 32/164/4 56/165/4 62/166/4
f 24/49/6 41/23/6 34/67/6
f 34/67/6 28/50/6 24/49/6
f 33/75/4 55/167/4 50/76/4
f 62/168/6 56/169/6 54/159/6
f 54/159/6 55/61/6 57/79/6
f 57/79/6 62/168/6 54/159/6
f 65/81/6 61/170/6 52/63/6
f 52/63/6 53/62/6 65/81/6
f 60/171/6 59/80/6 53/62/6
f 63/82/6 62/168/6 57/79/6
f 65/81/6 59/80/6 68/172/6
f 66/173/6 67/174/6 59/80/6
f 68/172/6 69/84/6 65/81/6
f 70/85/6 71/175/6 65/81/6
f 59/80/6 67/174/6 68/172/6
f 45/86/8 67/176/8 66/87/8
f 38/88/3 62/166/3 63/89/3
f 43/91/2 59/177/2 60/92/2
f 46/102/9 68/101/9 67/178/9
f 35/179/3 60/180/3 53/181/3
f 47/100/2 69/113/2 68/101/2
f 39/103/4 63/182/4 64/104/4
f 11/106/1 50/183/1 51/107/1
f 6/109/2 51/184/2 52/110/2
f 48/112/10 70/185/10 69/113/10
f 41/114/1 64/186/1 57/115/1
f 49/116/1 71/130/1 70/117/1
f 13/119/3 54/125/3 56/120/3
f 37/122/2 61/187/2 65/123/2
f 12/99/3 53/98/3 54/125/3
f 36/126/1 52/188/1 61/127/1
f 42/129/11 65/189/11 71/130/11
