# Blender v2.79 (sub 0) OBJ File: 'low_poly_death_house.blend'
# www.blender.org
o F2_ground_col_Cube.874
v 3.869914 0.374141 -7.040405
v 3.869914 0.374141 6.912663
v -3.868348 0.374141 6.912662
v -3.868346 0.374141 -7.040408
v 3.869915 0.147304 -7.040401
v 3.869911 0.147304 6.912667
v -3.868349 0.147304 6.912661
v -3.868347 0.147304 -7.040405
vt 0.000000 0.000000
vt 1.000000 1.000000
vt 1.000000 0.000000
vt 0.666667 0.000000
vt 0.333334 0.333333
vt 0.666667 0.333333
vt 0.333333 0.666667
vt 0.000000 1.000000
vt 0.333333 1.000000
vt 0.666667 0.666667
vt 0.333333 0.333334
vt 0.333333 0.333333
vt 0.000000 0.000000
vt 0.000000 0.333333
vt 1.000000 0.000000
vt 0.000000 1.000000
vt 0.333333 0.000000
vt 0.000000 0.666667
vt 0.666667 0.333333
vt 0.333333 0.000000
vt 1.000000 0.333333
vn 0.0000 1.0000 0.0000
vn 0.0000 -1.0000 0.0000
vn 1.0000 0.0000 0.0000
vn -0.0000 0.0000 1.0000
vn -1.0000 0.0000 -0.0000
vn 0.0000 -0.0000 -1.0000
s off
f 1/1/1 3/2/1 2/3/1
f 5/4/2 7/5/2 8/6/2
f 2/7/3 5/8/3 1/9/3
f 3/10/4 6/11/4 2/7/4
f 3/12/5 8/13/5 7/14/5
f 8/6/6 1/15/6 5/4/6
f 1/1/1 4/16/1 3/2/1
f 5/4/2 6/17/2 7/5/2
f 2/7/3 6/18/3 5/8/3
f 3/10/4 7/19/4 6/11/4
f 3/12/5 4/20/5 8/13/5
f 8/6/6 4/21/6 1/15/6
