# Blender v2.79 (sub 0) OBJ File: 'low_poly_death_house.blend'
# www.blender.org
o Cube.355_Cube.618
v 3.066725 -1.612489 1.195601
v 3.066725 -1.429994 1.195601
v 2.205276 -1.612489 0.426544
v 2.205276 -1.429994 0.426544
v 3.300185 -1.612489 0.849459
v 3.300185 -1.429994 0.849459
v 2.351565 -1.612489 0.209648
v 2.351565 -1.429994 0.209648
v 3.271012 -1.433264 0.908924
v 3.271012 -1.250769 0.908924
v 2.274723 -1.433264 0.325017
v 2.274723 -1.250769 0.325017
v 3.431563 -1.433264 0.523513
v 3.431563 -1.250769 0.523513
v 2.375325 -1.433264 0.083515
v 2.375325 -1.250769 0.083515
v 3.414701 -1.254038 0.587566
v 3.414701 -1.071544 0.587566
v 2.322764 -1.254038 0.211781
v 2.322764 -1.071544 0.211781
v 3.496026 -1.254038 0.178049
v 3.496026 -1.071544 0.178049
v 2.373724 -1.254038 -0.044826
v 2.373724 -1.071544 -0.044826
v 3.492137 -1.074813 0.244170
v 3.492137 -0.892319 0.244170
v 2.347512 -1.074813 0.091290
v 2.347512 -0.892319 0.091290
v 3.491037 -1.074813 -0.173342
v 3.491037 -0.892319 -0.173342
v 2.346822 -1.074813 -0.170327
v 2.346822 -0.892319 -0.170327
v 3.500275 -0.895588 -0.107754
v 3.500275 -0.713093 -0.107754
v 2.347992 -0.895588 -0.031714
v 2.347992 -0.713094 -0.031714
v 3.416793 -0.895588 -0.516837
v 3.416793 -0.713093 -0.516837
v 2.295681 -0.895588 -0.288050
v 2.295681 -0.713094 -0.288050
v 3.438794 -0.716363 -0.454363
v 3.438794 -0.533868 -0.454363
v 2.324185 -0.716363 -0.152395
v 2.324185 -0.533868 -0.152395
v 3.276215 -0.716363 -0.838921
v 3.276215 -0.533868 -0.838921
v 2.222311 -0.716363 -0.393363
v 2.222311 -0.533868 -0.393363
v 3.310113 -0.537138 -0.782018
v 3.310113 -0.354643 -0.782018
v 2.277028 -0.537138 -0.266002
v 2.277028 -0.354643 -0.266002
v 3.074832 -0.537138 -1.126925
v 3.074832 -0.354643 -1.126925
v 2.129598 -0.537138 -0.482124
v 2.129598 -0.354643 -0.482124
v 3.119295 -0.357912 -1.077832
v 3.119295 -0.175418 -1.077832
v 2.208376 -0.357912 -0.368068
v 2.208376 -0.175418 -0.368068
v 2.820569 -0.357912 -1.369516
v 2.820569 -0.175418 -1.369516
v 2.021191 -0.357912 -0.550840
v 2.021191 -0.175418 -0.550840
v 2.873846 -0.178687 -1.330164
v 2.873846 0.003808 -1.330164
v 2.120930 -0.178687 -0.454576
v 2.120930 0.003807 -0.454576
v 2.523427 -0.178687 -1.557153
v 2.523427 0.003808 -1.557153
v 1.901354 -0.178687 -0.596809
v 1.901354 0.003807 -0.596809
v 2.583423 0.000538 -1.529090
v 2.583423 0.183033 -1.529090
v 2.018130 0.000538 -0.522123
v 2.018130 0.183033 -0.522123
v 2.195096 0.000538 -1.682452
v 2.195096 0.183033 -1.682452
v 1.774801 0.000538 -0.618221
v 1.774801 0.183033 -0.618221
v 2.259451 0.179763 -1.666783
v 2.259451 0.362258 -1.666783
v 1.904021 0.179763 -0.568053
v 1.904021 0.362258 -0.568053
v 1.747110 0.179763 -1.740484
v 1.747110 0.362258 -1.740484
v 1.646511 0.179763 -0.614235
v 1.646511 0.362258 -0.614235
v 3.869914 0.374141 -7.040405
v 3.869914 0.374141 6.912663
v -3.868348 0.374141 6.912662
v -3.868347 0.374141 -7.040408
v 3.869915 0.147304 -7.040402
v 3.869912 0.147304 6.912668
v -3.868349 0.147304 6.912661
v -3.868347 0.147304 -7.040406
v 1.764810 0.374141 -7.040405
v 1.764810 0.374141 6.912663
v 1.764811 0.147304 -7.040403
v 1.764808 0.147304 6.912666
v 3.869913 0.374141 -1.744614
v -3.868347 0.374141 -1.744617
v 3.869914 0.147304 -1.744611
v -3.868348 0.147304 -1.744615
v 1.764809 0.147304 -1.744612
v 1.764810 0.374141 -1.744615
v 3.869914 0.374141 1.757450
v 3.869913 0.147304 1.757454
v 1.764809 0.147304 1.757452
v -3.868347 0.374141 1.757448
v -3.868348 0.147304 1.757448
v 1.764810 0.374141 1.757449
vt 0.758635 0.375593
vt 0.771586 0.314642
vt 0.771586 0.375593
vt 0.758635 0.314642
vt 0.771586 0.300230
vt 0.785274 0.385822
vt 0.772324 0.449168
vt 0.772324 0.385822
vt 0.788421 0.064287
vt 0.775471 0.088703
vt 0.775471 0.064287
vt 0.617568 0.418721
vt 0.699512 0.400156
vt 0.699512 0.429784
vt 0.611795 0.519886
vt 0.630360 0.437942
vt 0.630360 0.519886
vt 0.788421 0.089442
vt 0.775471 0.141355
vt 0.775471 0.089442
vt 0.792670 0.733279
vt 0.779720 0.749771
vt 0.779720 0.733279
vt 0.772324 0.214452
vt 0.785274 0.142093
vt 0.785274 0.214452
vt 0.778981 0.761380
vt 0.766031 0.788039
vt 0.766031 0.761380
vt 0.628631 0.287108
vt 0.647196 0.369052
vt 0.617568 0.369052
vt 0.583898 0.684134
vt 0.665842 0.702699
vt 0.583898 0.702699
vt 0.772324 0.513504
vt 0.785274 0.449906
vt 0.785274 0.513505
vt 0.666580 0.790233
vt 0.679531 0.772311
vt 0.679531 0.790233
vt 0.758635 0.220619
vt 0.771586 0.142093
vt 0.771586 0.220619
vt 0.772324 0.514243
vt 0.785274 0.543050
vt 0.772324 0.543050
vt 0.658997 0.287108
vt 0.677562 0.369052
vt 0.647934 0.369052
vt 0.583898 0.714500
vt 0.665842 0.733065
vt 0.583898 0.733065
vt 0.758635 0.522687
vt 0.771586 0.449906
vt 0.771586 0.522687
vt 0.737915 0.768282
vt 0.724965 0.786930
vt 0.724965 0.768282
vt 0.691250 0.287108
vt 0.678300 0.368711
vt 0.678300 0.287108
vt 0.754750 0.522293
vt 0.741800 0.552115
vt 0.741800 0.522293
vt 0.665842 0.623402
vt 0.583898 0.641967
vt 0.583898 0.612340
vt 0.642162 0.519886
vt 0.660726 0.437942
vt 0.660726 0.519886
vt 0.751604 0.688006
vt 0.738653 0.767107
vt 0.738653 0.688006
vt 0.696208 0.771457
vt 0.683258 0.790097
vt 0.683258 0.771457
vt 0.704939 0.287240
vt 0.691989 0.368711
vt 0.691989 0.287240
vt 0.576866 0.747904
vt 0.563916 0.777567
vt 0.563916 0.747904
vt 0.665842 0.775232
vt 0.583898 0.793797
vt 0.583898 0.764170
vt 0.724965 0.563916
vt 0.806909 0.582481
vt 0.724965 0.582481
vt 0.704781 0.437942
vt 0.691831 0.520251
vt 0.691831 0.437942
vt 0.792670 0.714643
vt 0.779720 0.732541
vt 0.779720 0.714643
vt 0.758636 0.299491
vt 0.771586 0.221358
vt 0.771586 0.299491
vt 0.768439 0.523777
vt 0.755489 0.552115
vt 0.755489 0.523777
vt 0.677643 0.612340
vt 0.696208 0.694284
vt 0.666580 0.694284
vt 0.724965 0.594282
vt 0.806909 0.612847
vt 0.724965 0.612847
vt 0.724965 0.674317
vt 0.807243 0.687267
vt 0.724965 0.687267
vt 0.779720 0.766962
vt 0.792670 0.750509
vt 0.792670 0.766962
vt 0.772324 0.286913
vt 0.785274 0.215191
vt 0.785274 0.286913
vt 0.792670 0.688006
vt 0.779720 0.713904
vt 0.779720 0.688006
vt 0.665842 0.744866
vt 0.583898 0.763431
vt 0.583898 0.733804
vt 0.724965 0.624648
vt 0.806909 0.643213
vt 0.724965 0.643213
vt 0.752342 0.767017
vt 0.765292 0.688006
vt 0.765292 0.767017
vt 0.600733 0.536663
vt 0.613683 0.522302
vt 0.613683 0.536663
vt 0.788421 0.000369
vt 0.775471 0.062858
vt 0.775471 0.000369
vt 0.751603 0.767845
vt 0.738653 0.790284
vt 0.738653 0.767845
vt 0.677208 0.529657
vt 0.695773 0.611601
vt 0.666145 0.611601
vt 0.583898 0.653768
vt 0.665842 0.672333
vt 0.583898 0.672333
vt 0.766031 0.760642
vt 0.778981 0.688006
vt 0.778981 0.760642
vt 0.683258 0.770719
vt 0.696208 0.759016
vt 0.696208 0.770719
vt 0.683258 0.759016
vt 0.696208 0.695023
vt 0.752342 0.791218
vt 0.765292 0.767756
vt 0.765292 0.791218
vt 0.561289 0.665221
vt 0.579854 0.747165
vt 0.550227 0.747165
vt 0.724965 0.655014
vt 0.806909 0.673579
vt 0.724965 0.673579
vt 0.785274 0.287651
vt 0.772324 0.356518
vt 0.772324 0.287651
vt 0.627372 0.522804
vt 0.614422 0.536662
vt 0.614422 0.522804
vt 0.771586 0.376331
vt 0.758635 0.449168
vt 0.758635 0.376331
vt 0.785274 0.358425
vt 0.772324 0.385084
vt 0.772324 0.358425
vt 0.672528 0.437942
vt 0.691092 0.519886
vt 0.661465 0.519886
vt 0.617568 0.380853
vt 0.699512 0.399418
vt 0.617568 0.399418
vt 0.679531 0.695023
vt 0.666580 0.771572
vt 0.666580 0.695023
vt 0.779720 0.783776
vt 0.792670 0.767701
vt 0.792670 0.783776
vt 0.737915 0.688006
vt 0.724965 0.767544
vt 0.724965 0.688006
vt 0.550227 0.783940
vt 0.563177 0.747904
vt 0.563177 0.783940
vt 0.583898 0.560269
vt 0.665407 0.537401
vt 0.665407 0.574132
vt 0.583898 0.588734
vt 0.665407 0.611601
vt 0.584545 0.607288
vt 0.758635 0.300230
vt 0.785274 0.449168
vt 0.788421 0.088703
vt 0.617568 0.400156
vt 0.600733 0.437942
vt 0.788421 0.141355
vt 0.792670 0.749771
vt 0.772324 0.142093
vt 0.778981 0.788039
vt 0.647196 0.287108
vt 0.665842 0.673072
vt 0.772324 0.449906
vt 0.666580 0.772311
vt 0.758635 0.142093
vt 0.785274 0.514243
vt 0.677562 0.287108
vt 0.665842 0.703438
vt 0.758635 0.449906
vt 0.737915 0.786930
vt 0.691250 0.368711
vt 0.754750 0.552115
vt 0.665842 0.641967
vt 0.631099 0.437942
vt 0.751604 0.767107
vt 0.696208 0.790097
vt 0.704939 0.368711
vt 0.576866 0.777567
vt 0.665842 0.793797
vt 0.806909 0.552853
vt 0.704781 0.520251
vt 0.792670 0.732541
vt 0.758635 0.221358
vt 0.768439 0.552115
vt 0.696208 0.612340
vt 0.806909 0.583219
vt 0.807243 0.674317
vt 0.779720 0.750509
vt 0.772324 0.215191
vt 0.792670 0.713904
vt 0.665842 0.763431
vt 0.806909 0.613585
vt 0.752342 0.688006
vt 0.600733 0.522302
vt 0.788421 0.062858
vt 0.751603 0.790284
vt 0.695773 0.529657
vt 0.665842 0.642706
vt 0.766031 0.688006
vt 0.683258 0.695023
vt 0.752342 0.767756
vt 0.579854 0.665221
vt 0.806909 0.643951
vt 0.785274 0.356518
vt 0.627372 0.536663
vt 0.771586 0.449168
vt 0.785274 0.385084
vt 0.691092 0.437942
vt 0.699512 0.369790
vt 0.679531 0.771572
vt 0.779720 0.767701
vt 0.737915 0.767544
vt 0.550227 0.747904
vt 0.584545 0.541715
vt 0.665407 0.574870
vt 0.400107 0.999631
vt 0.400107 0.630436
vt 0.000369 0.630435
vt 0.664636 0.106037
vt 0.664636 0.000369
vt 0.550227 0.000369
vt 0.583159 0.287108
vt 0.567062 0.287108
vt 0.567062 0.654465
vt 0.724965 0.402019
vt 0.741061 0.402019
vt 0.741061 0.000369
vt 0.708129 0.618613
vt 0.708129 0.996802
vt 0.724226 0.996802
vt 0.741800 0.377639
vt 0.757897 0.377639
vt 0.757897 0.000369
vt 0.741800 0.518624
vt 0.757897 0.518624
vt 0.724965 0.552115
vt 0.741061 0.552115
vt 0.707391 0.106037
vt 0.707391 0.000369
vt 0.549488 0.630436
vt 0.549488 0.000370
vt 0.400107 0.000370
vt 0.400107 0.379632
vt 0.664636 0.286369
vt 0.707391 0.286369
vt 0.707391 0.177820
vt 0.708129 0.368519
vt 0.724226 0.618613
vt 0.550227 0.664482
vt 0.566324 0.664482
vt 0.566324 0.287108
vt 0.664636 0.177820
vt 0.550227 0.177820
vt 0.000369 0.000369
vt 0.000369 0.379632
vt 0.724226 0.000369
vt 0.708129 0.000369
vt 0.774732 0.141354
vt 0.774732 0.000369
vt 0.758635 0.000369
vt 0.599994 0.287108
vt 0.583898 0.287108
vt 0.583898 0.536662
vt 0.600733 0.437203
vt 0.616830 0.437203
vt 0.616830 0.287108
vt 0.550227 0.106037
vt 0.000369 0.999631
vt 0.583159 0.654465
vt 0.724965 0.000369
vt 0.741800 0.000369
vt 0.549488 0.999631
vt 0.549488 0.379632
vt 0.724226 0.368519
vt 0.550227 0.287108
vt 0.550227 0.286369
vt 0.758635 0.141355
vt 0.599994 0.536663
vt 0.600733 0.287108
vn -0.6660 0.0000 0.7460
vn -0.8291 0.0000 -0.5592
vn 0.5592 0.0000 -0.8291
vn 0.8291 0.0000 0.5592
vn 0.0000 -1.0000 0.0000
vn 0.0000 1.0000 0.0000
vn -0.5056 0.0000 0.8627
vn -0.9231 0.0000 -0.3845
vn 0.3845 0.0000 -0.9231
vn 0.9231 0.0000 0.3845
vn -0.3254 0.0000 0.9456
vn -0.9808 0.0000 -0.1948
vn 0.1948 0.0000 -0.9808
vn 0.9808 0.0000 0.1948
vn -0.1324 0.0000 0.9912
vn -1.0000 0.0000 0.0026
vn -0.0026 0.0000 -1.0000
vn 1.0000 0.0000 -0.0026
vn 0.0658 0.0000 0.9978
vn -0.9798 0.0000 0.2000
vn -0.2000 0.0000 -0.9798
vn 0.9798 0.0000 -0.2000
vn 0.2615 0.0000 0.9652
vn -0.9211 0.0000 0.3894
vn -0.3894 0.0000 -0.9211
vn 0.9211 0.0000 -0.3894
vn 0.4468 0.0000 0.8946
vn -0.8261 0.0000 0.5635
vn -0.5635 0.0000 -0.8261
vn 0.8261 0.0000 -0.5635
vn 0.6146 0.0000 0.7888
vn -0.6986 0.0000 0.7155
vn -0.7155 0.0000 -0.6986
vn 0.6986 0.0000 -0.7155
vn 0.7582 0.0000 0.6520
vn -0.5437 0.0000 0.8393
vn -0.8393 0.0000 -0.5437
vn 0.5437 0.0000 -0.8393
vn 0.8720 0.0000 0.4895
vn -0.3673 0.0000 0.9301
vn -0.9301 0.0000 -0.3673
vn 0.3673 0.0000 -0.9301
vn 0.9515 0.0000 0.3078
vn -0.1765 0.0000 0.9843
vn -0.9960 0.0000 -0.0890
vn 0.1424 0.0000 -0.9898
vn 1.0000 -0.0000 0.0000
vn -0.0000 0.0000 1.0000
vn -1.0000 -0.0000 -0.0000
vn 0.0000 -0.0000 -1.0000
s off
f 2/1/1 3/2/1 1/3/1
f 4/4/2 7/5/2 3/2/2
f 8/6/3 5/7/3 7/8/3
f 6/9/4 1/10/4 5/11/4
f 3/12/5 5/13/5 1/14/5
f 4/15/6 6/16/6 8/17/6
f 10/18/7 11/19/7 9/20/7
f 12/21/8 15/22/8 11/23/8
f 16/24/9 13/25/9 15/26/9
f 14/27/10 9/28/10 13/29/10
f 11/30/5 13/31/5 9/32/5
f 12/33/6 14/34/6 16/35/6
f 18/36/11 19/37/11 17/38/11
f 20/39/12 23/40/12 19/41/12
f 24/42/13 21/43/13 23/44/13
f 21/45/14 18/46/14 17/47/14
f 19/48/5 21/49/5 17/50/5
f 20/51/6 22/52/6 24/53/6
f 26/54/15 27/55/15 25/56/15
f 28/57/16 31/58/16 27/59/16
f 32/60/17 29/61/17 31/62/17
f 30/63/18 25/64/18 29/65/18
f 27/66/5 29/67/5 25/68/5
f 28/69/6 30/70/6 32/71/6
f 34/72/19 35/73/19 33/74/19
f 36/75/20 39/76/20 35/77/20
f 40/78/21 37/79/21 39/80/21
f 38/81/22 33/82/22 37/83/22
f 35/84/5 37/85/5 33/86/5
f 36/87/6 38/88/6 40/89/6
f 42/90/23 43/91/23 41/92/23
f 44/93/24 47/94/24 43/95/24
f 48/96/25 45/97/25 47/98/25
f 46/99/26 41/100/26 45/101/26
f 43/102/5 45/103/5 41/104/5
f 44/105/6 46/106/6 48/107/6
f 50/108/27 51/109/27 49/110/27
f 52/111/28 55/112/28 51/113/28
f 56/114/29 53/115/29 55/116/29
f 54/117/30 49/118/30 53/119/30
f 51/120/5 53/121/5 49/122/5
f 52/123/6 54/124/6 56/125/6
f 58/126/31 59/127/31 57/128/31
f 60/129/32 63/130/32 59/131/32
f 64/132/33 61/133/33 63/134/33
f 62/135/34 57/136/34 61/137/34
f 59/138/5 61/139/5 57/140/5
f 60/141/6 62/142/6 64/143/6
f 66/144/35 67/145/35 65/146/35
f 68/147/36 71/148/36 67/149/36
f 72/150/37 69/151/37 71/148/37
f 70/152/38 65/153/38 69/154/38
f 67/155/5 69/156/5 65/157/5
f 68/158/6 70/159/6 72/160/6
f 74/161/39 75/162/39 73/163/39
f 76/164/40 79/165/40 75/166/40
f 80/167/41 77/168/41 79/169/41
f 78/170/42 73/171/42 77/172/42
f 75/173/5 77/174/5 73/175/5
f 76/176/6 78/177/6 80/178/6
f 82/179/43 83/180/43 81/181/43
f 84/182/44 87/183/44 83/184/44
f 88/185/45 85/186/45 87/187/45
f 86/188/46 81/189/46 85/190/46
f 83/191/5 85/192/5 81/193/5
f 84/194/6 86/195/6 88/196/6
f 2/1/1 4/4/1 3/2/1
f 4/4/2 8/197/2 7/5/2
f 8/6/3 6/198/3 5/7/3
f 6/9/4 2/199/4 1/10/4
f 3/12/5 7/200/5 5/13/5
f 4/15/6 2/201/6 6/16/6
f 10/18/7 12/202/7 11/19/7
f 12/21/8 16/203/8 15/22/8
f 16/24/9 14/204/9 13/25/9
f 14/27/10 10/205/10 9/28/10
f 11/30/5 15/206/5 13/31/5
f 12/33/6 10/207/6 14/34/6
f 18/36/11 20/208/11 19/37/11
f 20/39/12 24/209/12 23/40/12
f 24/42/13 22/210/13 21/43/13
f 21/45/14 22/211/14 18/46/14
f 19/48/5 23/212/5 21/49/5
f 20/51/6 18/213/6 22/52/6
f 26/54/15 28/214/15 27/55/15
f 28/57/16 32/215/16 31/58/16
f 32/60/17 30/216/17 29/61/17
f 30/63/18 26/217/18 25/64/18
f 27/66/5 31/218/5 29/67/5
f 28/69/6 26/219/6 30/70/6
f 34/72/19 36/220/19 35/73/19
f 36/75/20 40/221/20 39/76/20
f 40/78/21 38/222/21 37/79/21
f 38/81/22 34/223/22 33/82/22
f 35/84/5 39/224/5 37/85/5
f 36/87/6 34/225/6 38/88/6
f 42/90/23 44/226/23 43/91/23
f 44/93/24 48/227/24 47/94/24
f 48/96/25 46/228/25 45/97/25
f 46/99/26 42/229/26 41/100/26
f 43/102/5 47/230/5 45/103/5
f 44/105/6 42/231/6 46/106/6
f 50/108/27 52/232/27 51/109/27
f 52/111/28 56/233/28 55/112/28
f 56/114/29 54/234/29 53/115/29
f 54/117/30 50/235/30 49/118/30
f 51/120/5 55/236/5 53/121/5
f 52/123/6 50/237/6 54/124/6
f 58/126/31 60/238/31 59/127/31
f 60/129/32 64/239/32 63/130/32
f 64/132/33 62/240/33 61/133/33
f 62/135/34 58/241/34 57/136/34
f 59/138/5 63/242/5 61/139/5
f 60/141/6 58/243/6 62/142/6
f 66/144/35 68/244/35 67/145/35
f 68/147/36 72/150/36 71/148/36
f 72/150/37 70/245/37 69/151/37
f 70/152/38 66/246/38 65/153/38
f 67/155/5 71/247/5 69/156/5
f 68/158/6 66/248/6 70/159/6
f 74/161/39 76/249/39 75/162/39
f 76/164/40 80/250/40 79/165/40
f 80/167/41 78/251/41 77/168/41
f 78/170/42 74/252/42 73/171/42
f 75/173/5 79/253/5 77/174/5
f 76/176/6 74/254/6 78/177/6
f 82/179/43 84/255/43 83/180/43
f 84/182/44 88/256/44 87/183/44
f 88/185/45 86/257/45 85/186/45
f 86/188/46 82/258/46 81/189/46
f 83/191/5 87/259/5 85/192/5
f 84/194/6 82/260/6 86/195/6
f 98/261/6 112/262/6 110/263/6
f 109/264/5 100/265/5 95/266/5
f 108/267/47 107/268/47 90/269/47
f 100/270/48 98/271/48 91/272/48
f 102/273/49 92/274/49 96/275/49
f 97/276/50 99/277/50 96/278/50
f 89/279/50 93/280/50 99/277/50
f 94/281/48 90/282/48 98/271/48
f 108/283/5 94/284/5 100/265/5
f 107/285/6 112/262/6 98/261/6
f 89/286/6 97/287/6 106/288/6
f 99/289/5 93/290/5 103/291/5
f 110/292/49 102/273/49 104/293/49
f 93/294/47 89/295/47 101/296/47
f 99/289/5 105/297/5 104/298/5
f 97/287/6 92/299/6 102/300/6
f 95/301/49 91/302/49 110/292/49
f 112/303/50 107/304/50 108/305/50
f 112/306/47 109/307/47 105/308/47
f 103/309/48 101/310/48 106/311/48
f 105/297/5 109/264/5 111/312/5
f 106/288/6 102/300/6 110/263/6
f 98/261/6 110/263/6 91/313/6
f 109/264/5 95/266/5 111/312/5
f 108/267/47 90/269/47 94/314/47
f 100/270/48 91/272/48 95/315/48
f 102/273/49 96/275/49 104/293/49
f 97/276/50 96/278/50 92/316/50
f 89/279/50 99/277/50 97/276/50
f 94/281/48 98/271/48 100/270/48
f 108/283/5 100/265/5 109/264/5
f 107/285/6 98/261/6 90/317/6
f 89/286/6 106/288/6 101/318/6
f 99/289/5 103/291/5 105/297/5
f 110/292/49 104/293/49 111/319/49
f 93/294/47 101/296/47 103/320/47
f 99/289/5 104/298/5 96/321/5
f 97/287/6 102/300/6 106/288/6
f 95/301/49 110/292/49 111/319/49
f 112/303/50 108/305/50 109/322/50
f 112/306/47 105/308/47 106/323/47
f 103/309/48 106/311/48 105/324/48
f 105/297/5 111/312/5 104/298/5
f 106/288/6 110/263/6 112/262/6
