# Blender v2.79 (sub 0) OBJ File: 'low_poly_death_house.blend'
# www.blender.org
mtllib dungeon1_ground_COL.mtl
o Plane.022
v -11.662759 2.641476 -22.499062
v -11.662759 0.006325 -22.499062
v 10.718696 0.006325 -22.499062
v 10.718696 2.641476 2.202012
v 0.531228 2.641476 -22.499062
v -11.662759 2.641476 2.202013
v 10.718696 0.006325 2.202016
v -4.243831 2.641476 2.202013
v 0.531228 2.641476 -20.051956
v 0.531228 2.641476 -20.986366
v -0.575379 2.641476 -16.344322
v 0.531228 2.641476 -16.344322
v -4.243831 2.641476 -14.047276
v -0.575379 2.641476 -14.047276
v -0.561310 2.641476 -12.636057
v -5.216173 2.641476 -11.504842
v -0.575378 2.641476 -11.504843
v -0.561310 2.641476 -11.504843
v -0.575378 2.641476 -6.724474
v -4.243832 2.641476 -18.689419
v -11.662759 2.641476 -7.790519
v -5.216173 2.641476 -7.790519
v -4.243831 2.641476 -7.790519
v -0.575378 2.641476 -7.790519
v -4.243831 2.641476 -4.381042
v -11.662759 2.641476 -18.689419
v -2.823424 1.463133 -7.790519
v -1.716178 2.641476 -12.636057
v -1.716178 2.641476 -11.504843
v -1.716178 2.641476 -6.724474
v -1.716178 2.641476 -7.790519
v -2.823424 0.212619 -7.790519
v -2.823424 0.182456 -6.724474
v 10.718696 3.856632 -22.499062
v 10.718696 3.856632 2.202012
v 0.531228 3.856632 -22.499062
v 1.928456 3.856632 -20.051956
v 0.531228 3.856632 -20.051956
v 1.928456 3.856632 -20.986366
v 0.531228 3.856632 -20.986366
v -4.243831 3.856632 2.202013
v -4.243831 3.856632 -4.381042
v -0.575378 3.856632 -4.381042
v -0.575378 3.856632 -6.724474
v 0.531228 3.856632 -6.724474
v 0.531228 3.856632 -16.344322
v -0.575379 3.856632 -16.344322
v -0.575379 3.856632 -14.047276
v -4.243831 3.856632 -14.047276
v -4.243831 3.856632 -12.636057
v 0.531228 3.856632 -12.636057
v 0.531228 3.856632 -11.504843
v -0.575378 3.856632 -11.504843
v 0.531228 3.856632 -7.790519
v -0.575378 3.856632 -7.790519
v -1.716177 1.464575 -5.624765
v -0.575378 1.464575 -5.637130
v -4.243831 1.464575 -12.636057
v -5.216173 1.464575 -11.504842
v -11.662759 1.464575 -7.790519
v -5.216173 1.464575 -7.790519
v -0.575378 1.464575 -4.381042
v -4.243831 1.423084 -7.790519
v -2.933668 1.464575 -12.636057
v -2.933668 1.464575 -11.504843
v -4.243832 1.464575 -18.689419
v -11.662759 1.464575 -18.689419
v -4.243831 1.432971 -4.381042
v -2.843084 1.463087 -5.621139
v -2.823424 0.212619 -7.790519
v -1.716177 1.447110 -5.624765
v -1.716178 0.214060 -6.724474
v -2.823424 0.214060 -5.624765
v -2.823424 1.415506 -5.624765
v -2.823424 0.182456 -6.724474
v -1.716178 0.212619 -7.790519
v -1.716178 0.212619 -7.790519
v -1.716178 0.214060 -6.724474
v -11.662759 0.006325 2.202016
v -5.256783 2.641476 -18.689419
vt 0.058360 0.913791
vt 0.035644 0.887704
vt 0.058360 0.887673
vt 0.887243 0.298979
vt 0.868268 0.348910
vt 0.868268 0.298979
vt 0.011148 0.887673
vt 0.035644 0.887673
vt 0.035644 0.916855
vt 0.131949 0.942893
vt 0.108225 0.865417
vt 0.131949 0.787941
vt 0.810356 0.315409
vt 0.793076 0.295749
vt 0.810356 0.295749
vt 0.981529 0.148016
vt 0.995952 0.332027
vt 0.981529 0.332027
vt 0.829077 0.313648
vt 0.848053 0.313648
vt 0.848053 0.336255
vt 0.309765 0.959946
vt 0.287458 0.985326
vt 0.287458 0.959946
vt 0.950762 0.338131
vt 0.967577 0.357791
vt 0.950762 0.357791
vt 0.966643 0.319157
vt 0.950789 0.298436
vt 0.958839 0.298436
vt 0.242083 0.828496
vt 0.257916 0.866084
vt 0.242083 0.866084
vt 0.736210 0.372931
vt 0.711425 0.428092
vt 0.711425 0.372932
vt 0.210120 0.827728
vt 0.225952 0.864133
vt 0.210120 0.864133
vt 0.000000 0.000000
vt 0.000000 0.000000
vt 0.000000 0.000000
vt 0.540693 0.486621
vt 0.789766 0.486621
vt 0.704882 0.812230
vt 0.995952 0.005608
vt 0.995952 0.148015
vt 0.981529 0.148015
vt 0.083864 0.937661
vt 0.107588 0.864560
vt 0.107588 0.937661
vt 0.827272 0.071458
vt 0.847975 0.019774
vt 0.847975 0.155125
vt 0.000000 0.000000
vt 0.000000 0.000000
vt 0.000000 0.000000
vt 0.000000 0.000000
vt 0.000000 0.000000
vt 0.917843 0.359416
vt 0.900029 0.378458
vt 0.900029 0.359416
vt 0.234761 0.887672
vt 0.211036 0.924039
vt 0.211036 0.887672
vt 0.715287 0.349447
vt 0.733688 0.331532
vt 0.753216 0.349447
vt 0.161828 0.865898
vt 0.148750 0.828310
vt 0.161828 0.828310
vt 0.752641 0.294487
vt 0.734263 0.283783
vt 0.752641 0.248573
vt 0.057951 0.939171
vt 0.035644 0.913791
vt 0.057951 0.913791
vt 0.186541 0.887672
vt 0.162046 0.924039
vt 0.162046 0.887672
vt 0.059368 0.887673
vt 0.011148 0.834880
vt 0.034873 0.834880
vt 0.186541 0.923974
vt 0.211036 0.887672
vt 0.211036 0.923974
vt 0.950251 0.280858
vt 0.918972 0.005608
vt 0.950250 0.005608
vt 0.259122 0.887672
vt 0.234761 0.921055
vt 0.234761 0.887672
vt 0.071189 0.286857
vt 0.146112 0.224454
vt 0.221048 0.224454
vt 0.918972 0.280858
vt 0.887694 0.280858
vt 0.887694 0.130895
vt 0.981529 0.390938
vt 0.964220 0.475736
vt 0.964220 0.412901
vt 0.324231 0.989129
vt 0.309936 0.963749
vt 0.324231 0.963749
vt 0.141579 0.938401
vt 0.141579 0.887672
vt 0.162046 0.887702
vt 0.059368 0.864560
vt 0.083864 0.941180
vt 0.059368 0.941180
vt 0.191798 0.863365
vt 0.176878 0.825777
vt 0.191798 0.825777
vt 0.083864 0.864560
vt 0.059368 0.787941
vt 0.107588 0.787941
vt 0.007976 0.212110
vt 0.109931 0.007935
vt 0.109931 0.212110
vt 0.807228 0.931715
vt 0.887161 0.538262
vt 0.887161 0.710281
vt 0.287458 0.959946
vt 0.287458 0.934567
vt 0.309765 0.934567
vt 0.758399 0.095957
vt 0.699036 0.095957
vt 0.758399 0.055661
vt 0.903864 0.323135
vt 0.903864 0.304093
vt 0.921020 0.304093
vt 0.711425 0.428095
vt 0.735452 0.483251
vt 0.711425 0.483251
vt 0.817092 0.273607
vt 0.835470 0.169304
vt 0.835470 0.273607
vt 0.036040 0.913791
vt 0.887243 0.348910
vt 0.108225 0.787941
vt 0.108225 0.942893
vt 0.793076 0.315409
vt 0.995952 0.148016
vt 0.967577 0.338131
vt 0.966643 0.298924
vt 0.950762 0.319157
vt 0.257916 0.828496
vt 0.736211 0.428091
vt 0.225952 0.827728
vt 0.704883 0.989010
vt 0.679031 0.861342
vt 0.540693 0.861341
vt 0.679031 0.989010
vt 0.789766 0.812230
vt 0.950251 0.148016
vt 0.950251 0.005608
vt 0.083864 0.864560
vt 0.808855 0.155125
vt 0.827212 0.113035
vt 0.791058 0.072184
vt 0.791059 0.019774
vt 0.917843 0.378458
vt 0.234761 0.924039
vt 0.715287 0.308551
vt 0.753216 0.331532
vt 0.734314 0.308551
vt 0.148750 0.865898
vt 0.715287 0.294487
vt 0.734263 0.248573
vt 0.715287 0.283783
vt 0.035644 0.939171
vt 0.186541 0.924039
vt 0.034873 0.787941
vt 0.059368 0.787941
vt 0.011148 0.887673
vt 0.186541 0.887672
vt 0.918972 0.280858
vt 0.259321 0.921055
vt 0.243907 0.224454
vt 0.243907 0.175031
vt 0.318966 0.175031
vt 0.318966 0.224454
vt 0.192531 0.011189
vt 0.221048 0.011189
vt 0.192531 0.175030
vt 0.340508 0.224454
vt 0.340508 0.175031
vt 0.387864 0.175031
vt 0.387864 0.011190
vt 0.520893 0.011190
vt 0.520893 0.679450
vt 0.021739 0.679448
vt 0.021739 0.224453
vt 0.052307 0.286857
vt 0.052307 0.224454
vt 0.071189 0.224454
vt 0.146112 0.175030
vt 0.873270 0.130895
vt 0.873270 0.005608
vt 0.918972 0.005608
vt 0.950251 0.412901
vt 0.950251 0.390938
vt 0.981529 0.533346
vt 0.950251 0.533346
vt 0.950251 0.475736
vt 0.309936 0.989129
vt 0.151653 0.913820
vt 0.151653 0.938401
vt 0.151653 0.887702
vt 0.083864 0.864560
vt 0.176878 0.863365
vt 0.108225 0.864560
vt 0.059368 0.864560
vt 0.007976 0.007935
vt 0.984562 0.710282
vt 0.936366 0.880398
vt 0.936366 0.931715
vt 0.858573 0.996508
vt 0.984562 0.880399
vt 0.807228 0.366244
vt 0.887161 0.366244
vt 0.838967 0.931715
vt 0.758399 0.219588
vt 0.699036 0.185242
vt 0.699036 0.219588
vt 0.699037 0.447301
vt 0.539334 0.447301
vt 0.539333 0.185242
vt 0.644545 0.185242
vt 0.776478 0.016572
vt 0.776478 0.095957
vt 0.758398 0.016572
vt 0.681998 0.016572
vt 0.699036 0.055661
vt 0.681998 0.095957
vt 0.921020 0.342795
vt 0.903864 0.342795
vt 0.735454 0.428092
vt 0.817092 0.169304
vn -0.0032 0.0000 -1.0000
vn -1.0000 0.0000 0.0000
vn 0.0000 0.0000 1.0000
vn 0.0000 0.0000 -1.0000
vn 1.0000 -0.0000 -0.0000
vn -0.7436 0.6686 0.0000
vn -0.0190 0.6655 -0.7462
vn -0.6950 0.7190 0.0000
vn 0.0000 1.0000 0.0000
vn -0.0086 0.9999 0.0146
vn 0.0000 0.6786 0.7345
vn -0.6562 0.7546 0.0000
vn -0.7394 0.6733 0.0000
vn 0.0000 -1.0000 0.0000
vn 0.0000 1.0000 -0.0014
vn -0.0032 0.0029 -1.0000
vn 0.9244 0.3813 0.0084
vn -0.0282 0.9996 -0.0002
vn -0.0013 1.0000 0.0012
vn -0.0241 0.9997 -0.0029
vn 0.0079 0.6827 0.7306
vn -0.0285 0.9992 0.0283
usemtl Dungeon_Floor.002
s off
f 71/1/1 69/2/1 56/3/1
f 25/4/2 41/5/2 42/6/2
f 10/7/3 39/8/3 40/9/3
f 66/10/3 80/11/3 67/12/3
f 12/13/4 47/14/4 46/15/4
f 41/16/3 4/17/3 35/18/3
f 9/19/4 38/20/4 37/21/4
f 55/22/3 24/23/3 54/24/3
f 11/25/2 48/26/2 47/27/2
f 27/28/5 74/29/5 75/30/5
f 15/31/6 52/32/6 51/33/6
f 74/34/7 72/35/7 75/36/7
f 29/37/8 64/38/8 65/39/8
f 72/40/3 33/41/3 75/42/3
f 67/43/9 60/44/9 59/45/9
f 34/46/5 35/47/5 4/48/5
f 16/49/4 65/50/4 59/51/4
f 69/52/10 68/53/10 62/54/10
f 32/55/3 77/56/3 76/57/3
f 76/57/3 78/58/3 72/40/3
f 75/42/3 70/59/3 32/55/3
f 30/60/11 57/61/11 19/62/11
f 72/40/3 78/58/3 33/41/3
f 75/42/3 33/41/3 70/59/3
f 32/55/3 70/59/3 77/56/3
f 76/57/3 77/56/3 78/58/3
f 59/63/2 22/64/2 16/65/2
f 31/66/3 27/67/3 76/68/3
f 10/69/12 37/70/12 39/71/12
f 58/72/2 13/73/2 66/74/2
f 53/75/4 18/76/4 17/77/4
f 17/78/2 55/79/2 53/80/2
f 50/81/3 64/82/3 28/83/3
f 46/84/2 9/85/2 12/86/2
f 6/87/3 7/88/3 4/89/3
f 68/90/5 23/91/5 25/92/5
f 37/93/9 46/94/9 51/95/9
f 2/96/4 1/97/4 5/98/4
f 2/99/2 60/100/2 67/101/2
f 40/102/2 5/103/2 10/104/2
f 31/105/2 76/106/2 71/107/2
f 48/108/4 13/109/4 49/110/4
f 45/111/13 24/112/13 19/113/13
f 25/114/4 43/115/4 62/116/4
f 2/117/14 7/118/14 79/119/14
f 5/120/9 80/121/9 20/122/9
f 19/123/4 44/124/4 45/125/4
f 29/126/9 31/127/9 17/128/9
f 19/129/2 57/130/2 62/131/2
f 70/132/15 78/133/15 77/134/15
f 21/135/4 61/136/4 60/137/4
f 71/1/16 73/138/16 69/2/16
f 25/4/2 8/139/2 41/5/2
f 26/140/3 67/12/3 80/11/3
f 66/10/3 20/141/3 80/11/3
f 12/13/4 11/142/4 47/14/4
f 41/16/3 8/143/3 4/17/3
f 11/25/2 14/144/2 48/26/2
f 75/30/5 32/145/5 27/28/5
f 27/28/17 69/146/17 74/29/17
f 15/31/6 18/147/6 52/32/6
f 74/34/7 71/148/7 72/35/7
f 29/37/8 28/149/8 64/38/8
f 59/45/9 65/150/9 58/151/9
f 58/151/9 66/152/9 59/45/9
f 65/150/9 64/153/9 58/151/9
f 60/44/9 61/154/9 59/45/9
f 66/152/9 67/43/9 59/45/9
f 4/48/5 7/155/5 3/156/5
f 3/156/5 34/46/5 4/48/5
f 16/49/4 29/157/4 65/50/4
f 62/54/9 57/158/9 56/159/9
f 69/52/18 27/160/18 63/161/18
f 62/54/19 56/159/19 69/52/19
f 69/52/20 63/161/20 68/53/20
f 30/60/21 56/162/21 57/61/21
f 59/63/2 61/163/2 22/64/2
f 31/66/3 23/164/3 27/67/3
f 27/67/3 32/165/3 76/68/3
f 23/164/3 63/166/3 27/67/3
f 10/69/12 9/167/12 37/70/12
f 58/72/2 50/168/2 13/73/2
f 13/73/2 20/169/2 66/74/2
f 50/168/2 49/170/2 13/73/2
f 53/75/4 52/171/4 18/76/4
f 17/78/2 24/172/2 55/79/2
f 15/173/3 51/174/3 28/83/3
f 50/81/3 58/175/3 64/82/3
f 28/83/3 51/174/3 50/81/3
f 46/84/2 38/176/2 9/85/2
f 6/87/3 79/177/3 7/88/3
f 68/90/5 63/178/5 23/91/5
f 52/179/9 53/180/9 55/181/9
f 52/179/9 55/181/9 54/182/9
f 49/183/9 50/184/9 48/185/9
f 51/95/9 52/179/9 37/93/9
f 45/186/9 44/187/9 43/188/9
f 43/188/9 42/189/9 41/190/9
f 41/190/9 35/191/9 43/188/9
f 34/192/9 36/193/9 39/194/9
f 36/193/9 40/195/9 39/194/9
f 43/188/9 35/191/9 45/186/9
f 45/186/9 35/191/9 54/182/9
f 34/192/9 39/194/9 37/93/9
f 37/93/9 38/196/9 46/94/9
f 46/94/9 47/197/9 48/185/9
f 48/185/9 50/184/9 51/95/9
f 54/182/9 35/191/9 52/179/9
f 46/94/9 48/185/9 51/95/9
f 52/179/9 35/191/9 34/192/9
f 34/192/9 37/93/9 52/179/9
f 36/198/4 34/199/4 5/98/4
f 3/200/4 2/96/4 5/98/4
f 5/98/4 34/199/4 3/200/4
f 26/201/2 1/202/2 67/101/2
f 79/203/2 6/204/2 60/100/2
f 6/204/2 21/205/2 60/100/2
f 67/101/2 1/202/2 2/99/2
f 79/203/2 60/100/2 2/99/2
f 40/102/2 36/206/2 5/103/2
f 71/107/2 56/207/2 31/105/2
f 30/208/2 31/105/2 56/207/2
f 76/106/2 72/209/2 71/107/2
f 48/108/4 14/210/4 13/109/4
f 45/111/13 54/211/13 24/112/13
f 62/116/4 68/212/4 25/114/4
f 25/114/4 42/213/4 43/115/4
f 2/117/14 3/214/14 7/118/14
f 20/122/9 13/215/9 11/216/9
f 11/216/9 12/217/9 9/218/9
f 13/215/9 14/219/9 11/216/9
f 1/220/9 26/221/9 80/121/9
f 20/122/9 11/216/9 10/222/9
f 1/220/9 80/121/9 5/120/9
f 10/222/9 5/120/9 20/122/9
f 11/216/9 9/218/9 10/222/9
f 29/126/9 16/223/9 23/224/9
f 22/225/9 21/226/9 6/227/9
f 6/227/9 8/228/9 25/229/9
f 6/227/9 25/229/9 22/225/9
f 16/223/9 22/225/9 23/224/9
f 15/230/9 28/231/9 17/128/9
f 17/128/9 18/232/9 15/230/9
f 19/233/9 24/234/9 31/127/9
f 31/127/9 30/235/9 19/233/9
f 22/225/9 25/229/9 23/224/9
f 31/127/9 24/234/9 17/128/9
f 29/126/9 23/224/9 31/127/9
f 17/128/9 28/231/9 29/126/9
f 62/131/2 43/236/2 19/129/2
f 44/237/2 19/129/2 43/236/2
f 70/132/22 33/238/22 78/133/22
f 21/135/4 22/239/4 61/136/4
