# Blender v2.79 (sub 0) OBJ File: 'boneginder.blend'
# www.blender.org
o Plane.010_Plane.016
v -9.844100 1.805612 11.170274
v 10.044757 1.813237 11.223053
v 10.019989 1.958888 -8.719183
v -9.876280 1.801058 -8.721511
v -7.724367 2.890530 9.025437
v -7.770798 2.869599 -6.580698
v 7.934010 2.870456 9.092724
v 7.988597 2.855757 -6.470480
v -9.868837 0.013541 -8.727853
v -9.836658 0.018095 11.163932
v 10.052199 0.025720 11.216711
v 10.027431 0.171371 -8.725525
vt 0.449061 0.445592
vt 0.499626 0.498949
vt 0.052324 0.450052
vt 0.049713 0.055573
vt 0.001198 0.494279
vt 0.009634 0.002296
vt 0.499642 0.001295
vt 0.442725 0.054306
vt 0.001198 0.494279
vt 0.009634 0.002296
vt 1.000000 0.500000
vt 0.500007 0.500000
vt 0.500007 0.000000
vt 1.000000 0.000000
vt 0.499626 0.498949
vt 0.499642 0.001295
vn 0.0034 0.9299 -0.3678
vn -0.4552 0.8904 0.0005
vn 0.0009 1.0000 -0.0013
vn -0.0008 0.8955 0.4451
vn 0.4044 0.9146 0.0006
vn -1.0000 -0.0042 0.0016
vn -0.0071 0.8975 -0.4410
vn -0.4527 0.8917 0.0002
vn -0.0015 0.8929 0.4502
vn 0.0013 1.0000 -0.0009
vn 0.4430 0.8965 0.0060
vn 0.0042 -1.0000 -0.0035
vn 0.0001 0.0035 -1.0000
vn -0.0027 -0.0036 1.0000
vn 1.0000 0.0042 -0.0012
s off
f 8/1/1 3/2/1 6/3/1
f 5/4/2 4/5/2 1/6/2
f 8/1/3 6/3/3 5/4/3
f 2/7/4 7/8/4 5/4/4
f 3/2/5 8/1/5 7/8/5
f 1/6/6 4/5/6 9/9/6 10/10/6
f 6/3/7 3/2/7 4/5/7
f 4/5/8 5/4/8 6/3/8
f 1/6/9 2/7/9 5/4/9
f 7/8/10 8/1/10 5/4/10
f 7/8/11 2/7/11 3/2/11
f 11/11/12 10/12/12 9/13/12 12/14/12
f 4/5/13 3/2/13 12/15/13 9/9/13
f 2/7/14 1/6/14 10/10/14 11/16/14
f 3/2/15 2/7/15 11/16/15 12/15/15
