# Blender v2.82 (sub 7) OBJ File: 'rimspire canyon.blend'
# www.blender.org
o Collider_Cube.003
v -20.068924 -3.492979 3.446690
v -20.068924 0.200969 3.446690
v -20.068924 -3.492979 -3.399063
v -20.068924 0.200969 -3.399063
v 3.444746 -3.492979 3.446690
v 3.444746 0.200969 3.446690
v 3.444746 -3.492979 -3.399063
v 3.444746 0.200969 -3.399063
v -20.068924 -3.492979 2.633410
v -20.068924 0.082295 2.633410
v 3.444746 -3.492979 2.633410
v 3.444746 0.082295 2.633410
v -20.068924 0.082295 -2.584054
v 3.444746 -3.492979 -2.584054
v -20.068924 -3.492979 -2.584054
v 3.444746 0.082295 -2.584054
v -20.068924 1.765956 -2.584054
v -20.068924 1.765956 -3.399063
v 3.444746 1.765956 -3.399063
v 3.444746 1.765956 2.633410
v 3.444746 1.765956 3.446690
v -20.068924 1.765956 3.446690
v -20.068924 1.765956 2.633410
v 3.444746 1.765956 -2.584054
v -3.953007 -3.492979 -3.399063
v -3.953007 0.200969 -3.399063
v -3.953007 -3.492979 3.446690
v -3.953007 0.200969 3.446690
v -3.765867 0.082295 2.633410
v -3.953007 -3.492979 2.633410
v -3.953007 -3.492979 -2.584054
v -3.765867 0.082295 -2.584054
v -3.953007 1.765956 -3.399063
v -3.953007 1.765956 3.446690
v -3.953007 1.765956 2.633410
v -3.953007 1.765956 -2.584054
v -1.491163 0.200969 -3.399063
v -1.491163 -3.492979 3.446690
v -1.496779 0.082295 2.633410
v -1.496779 0.082295 -2.584054
v -1.491163 1.765956 -3.399063
v -1.491163 1.765956 2.633410
v -1.491163 1.765956 -2.584054
v -1.491163 -3.492979 -3.399063
v -1.491163 0.200969 3.446690
v -1.491163 -3.492979 2.633410
v -1.491163 -3.492979 -2.584054
v -1.491163 1.765956 3.446690
v -20.068924 -3.492979 0.250560
v 3.444746 0.082295 0.250560
v -20.068924 0.082295 0.250560
v 3.444746 -3.492979 0.250560
v -3.953007 -3.492979 0.250560
v -3.765867 0.082295 0.250560
v -1.496779 0.082295 0.250560
v -1.491163 -3.492979 0.250560
v -20.068924 0.082295 -0.118215
v 3.444746 -3.492979 -0.118215
v -20.068924 -3.492979 -0.118215
v 3.444746 0.082295 -0.118215
v -3.953007 -3.492979 -0.118215
v -3.765867 0.082295 -0.118215
v -1.496779 0.082295 -0.118215
v -1.491163 -3.492979 -0.118215
v -3.765867 -1.750461 0.250560
v -3.765867 -1.750461 2.633410
v -1.496779 -1.750461 2.633410
v -3.765867 -1.750461 -2.584054
v -1.496779 -1.750461 -2.584054
v -1.496779 -1.750461 0.250560
v -3.765867 -1.750461 -0.118215
v -1.496779 -1.750461 -0.118215
vt 0.625000 0.220237
vt 0.375000 0.250000
vt 0.375000 0.220237
vt 0.625000 0.447521
vt 0.375000 0.500000
vt 0.375000 0.447521
vt 0.625000 0.720300
vt 0.375000 0.750000
vt 0.375000 0.720300
vt 0.625000 0.828654
vt 0.375000 1.000000
vt 0.375000 0.828654
vt 0.322521 0.750000
vt 0.322521 0.720300
vt 0.625000 0.250000
vt 0.625000 0.421346
vt 0.625000 0.421346
vt 0.875000 0.633281
vt 0.703654 0.720300
vt 0.703654 0.633281
vt 0.375000 0.633281
vt 0.322521 0.633280
vt 0.625000 0.633281
vt 0.375000 0.000000
vt 0.625000 0.029700
vt 0.375000 0.029700
vt 0.625000 0.529763
vt 0.375000 0.529763
vt 0.322521 0.529763
vt 0.322521 0.500000
vt 0.875000 0.720300
vt 0.703654 0.720300
vt 0.625000 0.130187
vt 0.375000 0.130187
vt 0.875000 0.720300
vt 0.703654 0.750000
vt 0.875000 0.500000
vt 0.703654 0.529763
vt 0.703654 0.500000
vt 0.625000 0.500000
vt 0.625000 0.529763
vt 0.625000 0.750000
vt 0.625000 0.720300
vt 0.625000 0.750000
vt 0.677479 0.529763
vt 0.677479 0.529763
vt 0.625000 0.000000
vt 0.625000 0.029700
vt 0.625000 0.220237
vt 0.625000 0.250000
vt 0.625000 0.802479
vt 0.625000 0.802479
vt 0.625000 1.000000
vt 0.625000 1.000000
vt 0.875000 0.529763
vt 0.875000 0.529763
vt 0.677479 0.500000
vt 0.677479 0.750000
vt 0.677479 0.720300
vt 0.677479 0.720300
vt 0.296346 0.500000
vt 0.125000 0.529763
vt 0.125000 0.500000
vt 0.296346 0.633281
vt 0.125000 0.720300
vt 0.125000 0.633281
vt 0.677479 0.633281
vt 0.677479 0.720300
vt 0.625000 0.447521
vt 0.296346 0.720300
vt 0.125000 0.750000
vt 0.375000 0.802479
vt 0.375000 0.421346
vt 0.625000 0.500000
vt 0.625000 0.828654
vt 0.703654 0.529763
vt 0.296346 0.529763
vt 0.296346 0.750000
vt 0.322521 0.619813
vt 0.296346 0.619813
vt 0.677479 0.619813
vt 0.625000 0.619813
vt 0.703654 0.619813
vt 0.125000 0.619813
vt 0.375000 0.116719
vt 0.375000 0.619813
vt 0.875000 0.619813
vt 0.677479 0.529763
vt 0.625000 0.116719
vt 0.703654 0.633281
vt 0.677479 0.633281
vt 0.703654 0.529763
vt 0.677479 0.619813
vt 0.703654 0.619813
vt 0.703654 0.720300
vt 0.875000 0.750000
vt 0.625000 0.000000
vn -1.0000 0.0000 0.0000
vn 0.0000 0.0000 -1.0000
vn 1.0000 0.0000 0.0000
vn 0.0000 0.0000 1.0000
vn 0.0000 -1.0000 0.0000
vn 0.0000 1.0000 0.0000
s off
f 13/1/1 3/2/1 15/3/1
f 37/4/2 7/5/2 44/6/2
f 12/7/3 5/8/3 11/9/3
f 28/10/4 1/11/4 27/12/4
f 11/9/5 38/13/5 46/14/5
f 4/15/2 33/16/2 26/17/2
f 51/18/6 29/19/6 54/20/6
f 52/21/5 46/14/5 56/22/5
f 50/23/3 11/9/3 52/21/3
f 1/24/1 10/25/1 9/26/1
f 7/5/3 16/27/3 14/28/3
f 7/5/5 47/29/5 44/30/5
f 10/31/2 35/32/2 29/19/2
f 57/33/1 15/3/1 59/34/1
f 23/35/6 34/36/6 35/32/6
f 18/37/6 36/38/6 33/39/6
f 8/40/3 24/41/3 16/27/3
f 6/42/3 20/43/3 21/44/3
f 16/27/4 43/45/4 40/46/4
f 2/47/1 23/48/1 10/25/1
f 4/15/1 17/49/1 18/50/1
f 6/42/4 48/51/4 45/52/4
f 28/10/4 22/53/4 2/54/4
f 13/55/4 36/38/4 17/56/4
f 33/39/6 43/45/6 41/57/6
f 35/32/6 48/58/6 42/59/6
f 29/19/2 42/59/2 39/60/2
f 25/61/5 15/62/5 3/63/5
f 53/64/5 9/65/5 49/66/5
f 55/67/1 67/68/1 39/60/1
f 26/17/2 41/69/2 37/4/2
f 30/70/5 1/71/5 9/65/5
f 45/52/4 27/12/4 38/72/4
f 4/15/2 25/73/2 3/2/2
f 6/42/4 38/72/4 5/8/4
f 37/4/2 19/74/2 8/40/2
f 55/67/6 12/7/6 50/23/6
f 12/7/2 42/59/2 20/43/2
f 42/59/6 21/44/6 20/43/6
f 41/57/6 24/41/6 19/74/6
f 45/52/4 34/75/4 28/10/4
f 32/76/4 43/45/4 36/38/4
f 44/30/5 31/77/5 25/61/5
f 56/22/5 30/70/5 53/64/5
f 46/14/5 27/78/5 30/70/5
f 26/17/2 44/6/2 25/73/2
f 64/79/5 53/64/5 61/80/5
f 63/81/6 50/23/6 60/82/6
f 62/83/6 55/67/6 63/81/6
f 61/80/5 49/66/5 59/84/5
f 10/25/1 49/85/1 9/26/1
f 60/82/3 52/21/3 58/86/3
f 58/86/5 56/22/5 64/79/5
f 57/87/6 54/20/6 62/83/6
f 13/55/6 62/83/6 32/76/6
f 14/28/5 64/79/5 47/29/5
f 16/27/3 58/86/3 14/28/3
f 31/77/5 59/84/5 15/62/5
f 32/76/4 69/88/4 40/46/4
f 40/46/6 60/82/6 16/27/6
f 47/29/5 61/80/5 31/77/5
f 51/89/1 59/34/1 49/85/1
f 65/90/6 67/68/6 70/91/6
f 68/92/6 72/93/6 69/88/6
f 62/83/3 68/92/3 32/76/3
f 54/20/4 70/91/4 55/67/4
f 63/81/2 71/94/2 62/83/2
f 29/19/3 65/90/3 54/20/3
f 40/46/1 72/93/1 63/81/1
f 39/60/2 66/95/2 29/19/2
f 13/1/1 4/15/1 3/2/1
f 37/4/2 8/40/2 7/5/2
f 12/7/3 6/42/3 5/8/3
f 28/10/4 2/54/4 1/11/4
f 11/9/5 5/8/5 38/13/5
f 4/15/2 18/50/2 33/16/2
f 51/18/6 10/31/6 29/19/6
f 52/21/5 11/9/5 46/14/5
f 50/23/3 12/7/3 11/9/3
f 1/24/1 2/47/1 10/25/1
f 7/5/3 8/40/3 16/27/3
f 7/5/5 14/28/5 47/29/5
f 10/31/2 23/35/2 35/32/2
f 57/33/1 13/1/1 15/3/1
f 23/35/6 22/96/6 34/36/6
f 18/37/6 17/56/6 36/38/6
f 8/40/3 19/74/3 24/41/3
f 6/42/3 12/7/3 20/43/3
f 16/27/4 24/41/4 43/45/4
f 2/47/1 22/97/1 23/48/1
f 4/15/1 13/1/1 17/49/1
f 6/42/4 21/44/4 48/51/4
f 28/10/4 34/75/4 22/53/4
f 13/55/4 32/76/4 36/38/4
f 33/39/6 36/38/6 43/45/6
f 35/32/6 34/36/6 48/58/6
f 29/19/2 35/32/2 42/59/2
f 25/61/5 31/77/5 15/62/5
f 53/64/5 30/70/5 9/65/5
f 55/67/1 70/91/1 67/68/1
f 26/17/2 33/16/2 41/69/2
f 30/70/5 27/78/5 1/71/5
f 45/52/4 28/10/4 27/12/4
f 4/15/2 26/17/2 25/73/2
f 6/42/4 45/52/4 38/72/4
f 37/4/2 41/69/2 19/74/2
f 55/67/6 39/60/6 12/7/6
f 12/7/2 39/60/2 42/59/2
f 42/59/6 48/58/6 21/44/6
f 41/57/6 43/45/6 24/41/6
f 45/52/4 48/51/4 34/75/4
f 32/76/4 40/46/4 43/45/4
f 44/30/5 47/29/5 31/77/5
f 56/22/5 46/14/5 30/70/5
f 46/14/5 38/13/5 27/78/5
f 26/17/2 37/4/2 44/6/2
f 64/79/5 56/22/5 53/64/5
f 63/81/6 55/67/6 50/23/6
f 62/83/6 54/20/6 55/67/6
f 61/80/5 53/64/5 49/66/5
f 10/25/1 51/89/1 49/85/1
f 60/82/3 50/23/3 52/21/3
f 58/86/5 52/21/5 56/22/5
f 57/87/6 51/18/6 54/20/6
f 13/55/6 57/87/6 62/83/6
f 14/28/5 58/86/5 64/79/5
f 16/27/3 60/82/3 58/86/3
f 31/77/5 61/80/5 59/84/5
f 32/76/4 68/92/4 69/88/4
f 40/46/6 63/81/6 60/82/6
f 47/29/5 64/79/5 61/80/5
f 51/89/1 57/33/1 59/34/1
f 65/90/6 66/95/6 67/68/6
f 68/92/6 71/94/6 72/93/6
f 62/83/3 71/94/3 68/92/3
f 54/20/4 65/90/4 70/91/4
f 63/81/2 72/93/2 71/94/2
f 29/19/3 66/95/3 65/90/3
f 40/46/1 69/88/1 72/93/1
f 39/60/2 67/68/2 66/95/2
