# Blender v2.79 (sub 0) OBJ File: 'low_poly_death_house.blend'
# www.blender.org
mtllib attic_floor.mtl
o Cube.383_Cube.664
v 1.838559 -0.126719 2.914982
v 1.838559 -0.064365 2.914982
v 1.838559 -0.126719 2.102324
v 1.838559 -0.064365 2.102324
v 2.122283 -0.126719 2.914982
v 2.122283 -0.064365 2.914982
v 2.122283 -0.126719 2.102324
v 2.122283 -0.064365 2.102324
v 1.838559 -0.064365 2.508653
v 1.980421 -0.064365 2.102324
v 2.122283 -0.064365 2.508653
v 1.980421 -0.064365 2.914982
v 1.980421 -0.064365 2.508653
v 2.051352 -0.064365 2.102324
v 2.122283 -0.064365 2.711818
v 2.122283 -0.064365 2.305489
v 2.051352 -0.064365 2.914982
v 1.980421 -0.064365 2.711818
v 1.980421 -0.064365 2.305489
v 2.051352 -0.064365 2.508653
v 2.051352 -0.064365 2.305489
v 2.051352 -0.064365 2.711818
v 2.122283 0.036265 2.305489
v 2.122283 0.036265 2.508653
v 2.051352 0.036265 2.508653
v 2.122283 0.036265 2.711818
v 2.051352 0.036265 2.305489
v 2.051352 0.036265 2.711818
v 2.051352 0.036265 2.914982
v 2.051352 0.098620 2.914982
v 2.051352 0.036265 2.102324
v 2.051352 0.098620 2.102324
v 2.335075 0.036265 2.914982
v 2.335075 0.098620 2.914982
v 2.335075 0.036265 2.102324
v 2.335075 0.098620 2.102324
v 2.051352 0.098620 2.508653
v 2.193213 0.098620 2.102324
v 2.335075 0.098620 2.508653
v 2.193213 0.098620 2.914982
v 2.193213 0.098620 2.508653
v 2.264144 0.098620 2.102324
v 2.335075 0.098620 2.711818
v 2.335075 0.098620 2.305489
v 2.264144 0.098620 2.914982
v 2.193213 0.098620 2.711818
v 2.193213 0.098620 2.305489
v 2.264144 0.098620 2.508653
v 2.264144 0.098620 2.305489
v 2.264144 0.098620 2.711818
v 2.335075 0.199250 2.305489
v 2.335075 0.199250 2.508653
v 2.264144 0.199250 2.508653
v 2.335075 0.199250 2.711818
v 2.264144 0.199250 2.305489
v 2.264144 0.199250 2.711818
v 2.264144 0.199250 2.914982
v 2.264144 0.261604 2.914982
v 2.264144 0.199250 2.102324
v 2.264144 0.261604 2.102324
v 2.547867 0.199250 2.914982
v 2.547867 0.261604 2.914982
v 2.547867 0.199250 2.102324
v 2.547867 0.261604 2.102324
v 2.264144 0.261604 2.508653
v 2.406005 0.261604 2.102324
v 2.547867 0.261604 2.508653
v 2.406005 0.261604 2.914982
v 2.406005 0.261604 2.508653
v 2.476936 0.261604 2.102324
v 2.547867 0.261604 2.711818
v 2.547867 0.261604 2.305489
v 2.476936 0.261604 2.914982
v 2.406005 0.261604 2.711818
v 2.406005 0.261604 2.305489
v 2.476936 0.261604 2.508653
v 2.476936 0.261604 2.305489
v 2.476936 0.261604 2.711818
v 2.547867 0.362234 2.305489
v 2.547867 0.362234 2.508653
v 2.476936 0.362234 2.508653
v 2.547867 0.362234 2.711818
v 2.476936 0.362234 2.305489
v 2.476936 0.362234 2.711818
v 3.863316 0.374141 -7.040404
v 3.863316 0.374141 6.912663
v -3.874946 0.374141 6.912662
v -3.874944 0.374140 -7.040408
v 3.863318 0.147304 -7.040401
v 3.863314 0.147304 6.912667
v -3.874947 0.147304 6.912661
v -3.874945 0.147304 -7.040405
v 3.863316 0.374141 1.950089
v -3.874945 0.374141 1.950087
v 3.863315 0.147304 1.950092
v -3.874946 0.147304 1.950087
v 3.863316 0.374141 3.007139
v 3.863315 0.147304 3.007143
v -3.874945 0.374141 3.007138
v -3.874946 0.147304 3.007138
v 2.473543 0.374141 -7.040405
v 2.473542 0.374141 6.912663
v 2.473544 0.147304 -7.040402
v 2.473540 0.147304 6.912666
v 2.473541 0.147304 1.950091
v 2.473542 0.374141 1.950088
v 2.473541 0.147304 3.007142
v 2.473542 0.374141 3.007139
v 1.189391 0.374141 -7.040406
v 1.189391 0.374141 6.912663
v 1.189392 0.147304 -7.040402
v 1.189389 0.147304 6.912665
v 1.189391 0.374141 1.950088
v 1.189391 0.374141 3.007139
v 1.189390 0.147304 1.950090
v 1.189390 0.147304 3.007141
vt 0.199501 0.954072
vt 0.199501 0.927818
vt 0.203361 0.954072
vt 0.258371 0.915313
vt 0.258371 0.919896
vt 0.254512 0.919896
vt 0.167748 0.927818
vt 0.167748 0.914691
vt 0.171608 0.901563
vt 0.254512 0.910730
vt 0.254512 0.919896
vt 0.250653 0.919896
vt 0.161520 0.901563
vt 0.143960 0.954072
vt 0.143960 0.901563
vt 0.073718 0.954072
vt 0.064938 0.954072
vt 0.064938 0.940945
vt 0.060548 0.954072
vt 0.060548 0.940945
vt 0.064938 0.914691
vt 0.060548 0.927818
vt 0.060548 0.914691
vt 0.073718 0.927818
vt 0.064938 0.927818
vt 0.209589 0.914691
vt 0.203361 0.901563
vt 0.209589 0.901563
vt 0.060548 0.901563
vt 0.056158 0.914691
vt 0.056158 0.901563
vt 0.064938 0.901563
vt 0.056158 0.954072
vt 0.056158 0.940945
vt 0.267152 0.908065
vt 0.271542 0.901563
vt 0.271542 0.908065
vt 0.235216 0.901563
vt 0.230825 0.914691
vt 0.230825 0.901563
vt 0.235216 0.914691
vt 0.230826 0.927818
vt 0.167748 0.940945
vt 0.161520 0.927818
vt 0.209589 0.927818
vt 0.203361 0.914691
vt 0.161520 0.914691
vt 0.258371 0.908065
vt 0.262762 0.901563
vt 0.262762 0.908065
vt 0.195642 0.954072
vt 0.195642 0.927818
vt 0.199501 0.954072
vt 0.242934 0.915313
vt 0.242934 0.919896
vt 0.239075 0.919896
vt 0.187923 0.927818
vt 0.187923 0.914691
vt 0.191783 0.901563
vt 0.250653 0.910730
vt 0.250653 0.919896
vt 0.246794 0.919896
vt 0.126399 0.954072
vt 0.143960 0.901563
vt 0.143960 0.954072
vt 0.091279 0.954072
vt 0.082499 0.954072
vt 0.082499 0.940945
vt 0.078108 0.954072
vt 0.078108 0.940945
vt 0.082498 0.914691
vt 0.078108 0.927818
vt 0.078108 0.914691
vt 0.091279 0.927818
vt 0.082498 0.927818
vt 0.222045 0.914691
vt 0.215817 0.901563
vt 0.222045 0.901563
vt 0.078108 0.901563
vt 0.073718 0.914691
vt 0.073718 0.901563
vt 0.082498 0.901563
vt 0.073718 0.954072
vt 0.073718 0.940945
vt 0.262762 0.908065
vt 0.267152 0.901563
vt 0.267152 0.908065
vt 0.230825 0.901563
vt 0.226435 0.914691
vt 0.226435 0.901563
vt 0.230825 0.914691
vt 0.226435 0.927818
vt 0.187923 0.940945
vt 0.181695 0.927818
vt 0.222045 0.927818
vt 0.215817 0.914691
vt 0.181695 0.914691
vt 0.280322 0.908065
vt 0.284712 0.901563
vt 0.284712 0.908065
vt 0.191783 0.954072
vt 0.191783 0.927818
vt 0.195642 0.954072
vt 0.239075 0.915313
vt 0.239075 0.919896
vt 0.235216 0.919896
vt 0.177836 0.927818
vt 0.177836 0.914691
vt 0.181695 0.901563
vt 0.242934 0.910730
vt 0.242934 0.901563
vt 0.246794 0.901563
vt 0.108839 0.901563
vt 0.091279 0.954072
vt 0.091279 0.901563
vt 0.126399 0.954072
vt 0.117619 0.954072
vt 0.117619 0.940945
vt 0.113229 0.954072
vt 0.113229 0.940945
vt 0.117619 0.914691
vt 0.113229 0.927818
vt 0.113229 0.914691
vt 0.126399 0.927818
vt 0.117619 0.927818
vt 0.215817 0.914691
vt 0.209589 0.901563
vt 0.215817 0.901563
vt 0.113229 0.901563
vt 0.108839 0.914691
vt 0.108839 0.901563
vt 0.117619 0.901563
vt 0.108839 0.954072
vt 0.108839 0.940945
vt 0.275932 0.908065
vt 0.280322 0.901563
vt 0.280322 0.908065
vt 0.226435 0.901563
vt 0.222045 0.914691
vt 0.222045 0.901563
vt 0.226435 0.914691
vt 0.222045 0.927818
vt 0.177836 0.940945
vt 0.171608 0.927818
vt 0.215817 0.927818
vt 0.209589 0.914691
vt 0.171608 0.914691
vt 0.271542 0.908065
vt 0.275932 0.901563
vt 0.275932 0.908065
vt 0.203361 0.901563
vt 0.199501 0.901563
vt 0.254512 0.901563
vt 0.258371 0.910730
vt 0.258371 0.901563
vt 0.171608 0.954072
vt 0.167748 0.954072
vt 0.167748 0.901563
vt 0.250653 0.901563
vt 0.254512 0.906147
vt 0.254512 0.901563
vt 0.161520 0.954072
vt 0.073718 0.901563
vt 0.267152 0.901563
vt 0.235216 0.927818
vt 0.161520 0.940945
vt 0.203361 0.927818
vt 0.258371 0.901563
vt 0.199501 0.901563
vt 0.195642 0.901563
vt 0.239075 0.901563
vt 0.242934 0.910730
vt 0.242934 0.901563
vt 0.191783 0.954072
vt 0.187923 0.954072
vt 0.187923 0.901563
vt 0.246794 0.901563
vt 0.250653 0.906147
vt 0.250653 0.901563
vt 0.126399 0.901563
vt 0.091279 0.901563
vt 0.262762 0.901563
vt 0.230825 0.927818
vt 0.181695 0.940945
vt 0.215817 0.927818
vt 0.280322 0.901563
vt 0.195642 0.901563
vt 0.191783 0.901563
vt 0.235216 0.901563
vt 0.239075 0.910730
vt 0.239075 0.901563
vt 0.181695 0.954072
vt 0.177836 0.954072
vt 0.177836 0.901563
vt 0.246794 0.919896
vt 0.242934 0.915313
vt 0.242934 0.919896
vt 0.108839 0.954072
vt 0.126399 0.901563
vt 0.275932 0.901563
vt 0.226435 0.927818
vt 0.171608 0.940945
vt 0.209589 0.927818
vt 0.271542 0.901563
vt 0.881578 0.649212
vt 0.383747 0.901563
vt 0.383747 0.649212
vt 0.071672 0.155932
vt -0.000197 0.213792
vt -0.000197 0.155932
vt 0.971921 0.901563
vt 0.957881 0.649212
vt 0.971921 0.649212
vt 0.985960 0.000000
vt 1.000000 0.327227
vt 0.985960 0.327227
vt 0.985960 0.320652
vt 0.971921 0.901563
vt 0.971921 0.320652
vt 0.985960 0.827227
vt 1.000000 0.500000
vt 1.000000 0.827227
vt 0.985960 0.252351
vt 0.971921 0.252351
vt 0.971921 0.580912
vt 0.957881 0.000000
vt 0.971921 0.000000
vt 0.071672 0.007077
vt -0.000197 0.140271
vt -0.000197 0.007077
vt 0.383747 0.000000
vt 0.881578 0.580912
vt 0.383747 0.580912
vt 0.971921 0.000000
vt 0.957881 0.580912
vt 0.071672 0.140271
vt 0.120896 0.580912
vt 0.257513 0.649212
vt 0.120896 0.649212
vt 0.109618 0.140272
vt 0.089895 0.155932
vt 0.089895 0.140271
vt 0.120896 0.000000
vt 0.257513 0.580912
vt 0.109618 0.007077
vt 0.089895 0.007077
vt 0.985960 0.910201
vt 1.000000 1.000000
vt 0.985960 1.000000
vt 0.985960 0.410201
vt 1.000000 0.500000
vt 0.985960 0.500000
vt 0.109618 0.155932
vt 0.089895 0.213792
vt 0.257513 0.901563
vt 0.120896 0.901564
vt 0.056158 0.969864
vt 0.042118 0.901564
vt 0.056158 0.901563
vt 0.028079 0.984538
vt 0.014039 0.901563
vt 0.028079 0.901563
vt 0.257513 0.000000
vt 1.000000 0.910201
vt 1.000000 0.410201
vt 0.071672 0.213792
vt 0.000000 0.984538
vt 0.014039 0.901564
vt 0.014039 0.984538
vt 0.042118 0.901564
vt 0.028079 0.969864
vt 0.028079 0.901563
vt 0.881578 0.901563
vt 0.957881 0.901564
vt 1.000000 0.000000
vt 0.985960 0.901564
vt 0.985960 0.500000
vt 0.881578 0.000000
vt 0.109618 0.213792
vt 0.042118 0.969864
vt 0.014040 0.984538
vt 0.000000 0.901563
vt 0.042118 0.969864
vn -1.0000 0.0000 0.0000
vn 0.0000 0.0000 -1.0000
vn 1.0000 -0.0000 0.0000
vn 0.0000 0.0000 1.0000
vn 0.0000 -1.0000 0.0000
vn 0.0000 1.0000 0.0000
usemtl Blue_Wall.052
s off
f 2/1/1 9/2/1 1/3/1
f 14/4/2 8/5/2 7/6/2
f 11/7/3 15/8/3 5/9/3
f 12/10/4 2/11/4 1/12/4
f 7/13/5 1/14/5 3/15/5
f 2/16/6 12/17/6 18/18/6
f 18/18/6 17/19/6 22/20/6
f 19/21/6 20/22/6 21/23/6
f 9/24/6 13/25/6 19/21/6
f 20/26/1 27/27/1 21/28/1
f 14/29/6 16/30/6 8/31/6
f 10/32/6 21/23/6 14/29/6
f 22/20/6 6/33/6 15/34/6
f 21/35/2 23/36/2 16/37/2
f 13/25/6 22/20/6 20/22/6
f 27/38/6 24/39/6 23/40/6
f 25/41/6 26/42/6 24/39/6
f 16/43/3 24/44/3 11/7/3
f 22/45/1 25/46/1 20/26/1
f 11/7/3 26/47/3 15/8/3
f 15/48/4 28/49/4 22/50/4
f 30/51/1 37/52/1 29/53/1
f 42/54/2 36/55/2 35/56/2
f 39/57/3 43/58/3 33/59/3
f 40/60/4 30/61/4 29/62/4
f 35/63/5 29/64/5 31/65/5
f 30/66/6 40/67/6 46/68/6
f 46/68/6 45/69/6 50/70/6
f 47/71/6 48/72/6 49/73/6
f 37/74/6 41/75/6 47/71/6
f 48/76/1 55/77/1 49/78/1
f 42/79/6 44/80/6 36/81/6
f 38/82/6 49/73/6 42/79/6
f 50/70/6 34/83/6 43/84/6
f 49/85/2 51/86/2 44/87/2
f 41/75/6 50/70/6 48/72/6
f 55/88/6 52/89/6 51/90/6
f 53/91/6 54/92/6 52/89/6
f 44/93/3 52/94/3 39/57/3
f 50/95/1 53/96/1 48/76/1
f 39/57/3 54/97/3 43/58/3
f 43/98/4 56/99/4 50/100/4
f 58/101/1 65/102/1 57/103/1
f 70/104/2 64/105/2 63/106/2
f 67/107/3 71/108/3 61/109/3
f 68/110/4 58/111/4 57/112/4
f 63/113/5 57/114/5 59/115/5
f 58/116/6 68/117/6 74/118/6
f 74/118/6 73/119/6 78/120/6
f 75/121/6 76/122/6 77/123/6
f 65/124/6 69/125/6 75/121/6
f 76/126/1 83/127/1 77/128/1
f 70/129/6 72/130/6 64/131/6
f 66/132/6 77/123/6 70/129/6
f 78/120/6 62/133/6 71/134/6
f 77/135/2 79/136/2 72/137/2
f 69/125/6 78/120/6 76/122/6
f 83/138/6 80/139/6 79/140/6
f 81/141/6 82/142/6 80/139/6
f 72/143/3 80/144/3 67/107/3
f 78/145/1 81/146/1 76/126/1
f 67/107/3 82/147/3 71/108/3
f 71/148/4 84/149/4 78/150/4
f 3/151/1 1/3/1 9/2/1
f 9/2/1 4/152/1 3/151/1
f 7/6/2 3/153/2 10/154/2
f 10/154/2 14/4/2 7/6/2
f 3/153/2 4/155/2 10/154/2
f 5/9/3 7/156/3 11/7/3
f 16/43/3 11/7/3 7/156/3
f 7/156/3 8/157/3 16/43/3
f 15/8/3 6/158/3 5/9/3
f 1/12/4 5/159/4 12/10/4
f 17/160/4 12/10/4 5/159/4
f 5/159/4 6/161/4 17/160/4
f 7/13/5 5/162/5 1/14/5
f 18/18/6 13/25/6 9/24/6
f 9/24/6 2/16/6 18/18/6
f 18/18/6 12/17/6 17/19/6
f 19/21/6 13/25/6 20/22/6
f 19/21/6 10/32/6 4/163/6
f 4/163/6 9/24/6 19/21/6
f 20/26/1 25/46/1 27/27/1
f 14/29/6 21/23/6 16/30/6
f 10/32/6 19/21/6 21/23/6
f 22/20/6 17/19/6 6/33/6
f 21/35/2 27/164/2 23/36/2
f 13/25/6 18/18/6 22/20/6
f 27/38/6 25/41/6 24/39/6
f 25/41/6 28/165/6 26/42/6
f 16/43/3 23/166/3 24/44/3
f 22/45/1 28/167/1 25/46/1
f 11/7/3 24/44/3 26/47/3
f 15/48/4 26/168/4 28/49/4
f 31/169/1 29/53/1 37/52/1
f 37/52/1 32/170/1 31/169/1
f 35/56/2 31/171/2 38/172/2
f 38/172/2 42/54/2 35/56/2
f 31/171/2 32/173/2 38/172/2
f 33/59/3 35/174/3 39/57/3
f 44/93/3 39/57/3 35/174/3
f 35/174/3 36/175/3 44/93/3
f 43/58/3 34/176/3 33/59/3
f 29/62/4 33/177/4 40/60/4
f 45/178/4 40/60/4 33/177/4
f 33/177/4 34/179/4 45/178/4
f 35/63/5 33/180/5 29/64/5
f 46/68/6 41/75/6 37/74/6
f 37/74/6 30/66/6 46/68/6
f 46/68/6 40/67/6 45/69/6
f 47/71/6 41/75/6 48/72/6
f 47/71/6 38/82/6 32/181/6
f 32/181/6 37/74/6 47/71/6
f 48/76/1 53/96/1 55/77/1
f 42/79/6 49/73/6 44/80/6
f 38/82/6 47/71/6 49/73/6
f 50/70/6 45/69/6 34/83/6
f 49/85/2 55/182/2 51/86/2
f 41/75/6 46/68/6 50/70/6
f 55/88/6 53/91/6 52/89/6
f 53/91/6 56/183/6 54/92/6
f 44/93/3 51/184/3 52/94/3
f 50/95/1 56/185/1 53/96/1
f 39/57/3 52/94/3 54/97/3
f 43/98/4 54/186/4 56/99/4
f 59/187/1 57/103/1 65/102/1
f 65/102/1 60/188/1 59/187/1
f 63/106/2 59/189/2 66/190/2
f 66/190/2 70/104/2 63/106/2
f 59/189/2 60/191/2 66/190/2
f 61/109/3 63/192/3 67/107/3
f 72/143/3 67/107/3 63/192/3
f 63/192/3 64/193/3 72/143/3
f 71/108/3 62/194/3 61/109/3
f 57/112/4 61/195/4 68/110/4
f 73/196/4 68/110/4 61/195/4
f 61/195/4 62/197/4 73/196/4
f 63/113/5 61/198/5 57/114/5
f 74/118/6 69/125/6 65/124/6
f 65/124/6 58/116/6 74/118/6
f 74/118/6 68/117/6 73/119/6
f 75/121/6 69/125/6 76/122/6
f 75/121/6 66/132/6 60/199/6
f 60/199/6 65/124/6 75/121/6
f 76/126/1 81/146/1 83/127/1
f 70/129/6 77/123/6 72/130/6
f 66/132/6 75/121/6 77/123/6
f 78/120/6 73/119/6 62/133/6
f 77/135/2 83/200/2 79/136/2
f 69/125/6 74/118/6 78/120/6
f 83/138/6 81/141/6 80/139/6
f 81/141/6 84/201/6 82/142/6
f 72/143/3 79/202/3 80/144/3
f 78/145/1 84/203/1 81/146/1
f 67/107/3 80/144/3 82/147/3
f 71/148/4 82/204/4 84/149/4
usemtl Floor.010
f 99/205/6 110/206/6 114/207/6
f 116/208/5 91/209/5 100/210/5
f 86/211/3 98/212/3 97/213/3
f 87/214/4 112/215/4 110/216/4
f 94/217/1 92/218/1 96/219/1
f 111/220/2 88/221/2 109/222/2
f 99/223/1 96/219/1 100/224/1
f 93/225/3 89/226/3 85/227/3
f 111/228/5 96/229/5 92/230/5
f 109/231/6 94/232/6 113/233/6
f 99/223/1 91/234/1 87/214/1
f 97/213/3 95/235/3 93/225/3
f 115/236/5 100/210/5 96/229/5
f 113/233/6 99/205/6 114/207/6
f 93/237/6 108/238/6 97/239/6
f 95/240/5 107/241/5 105/242/5
f 85/243/6 106/244/6 93/237/6
f 89/245/5 105/242/5 103/246/5
f 103/247/2 85/248/2 89/249/2
f 102/250/4 90/251/4 86/252/4
f 98/253/5 104/254/5 107/241/5
f 97/239/6 102/255/6 86/256/6
f 114/257/3 115/258/3 113/259/3
f 105/260/4 113/261/4 115/262/4
f 101/263/6 113/233/6 106/244/6
f 105/242/5 111/228/5 103/246/5
f 111/220/2 101/264/2 103/247/2
f 110/216/4 104/265/4 102/250/4
f 107/241/5 112/266/5 116/208/5
f 114/207/6 102/255/6 108/238/6
f 114/267/2 107/268/2 116/269/2
f 108/270/1 105/271/1 107/272/1
f 99/205/6 87/273/6 110/206/6
f 116/208/5 112/266/5 91/209/5
f 86/211/3 90/274/3 98/212/3
f 87/214/4 91/275/4 112/215/4
f 94/217/1 88/276/1 92/218/1
f 111/220/2 92/277/2 88/221/2
f 99/223/1 94/217/1 96/219/1
f 93/225/3 95/235/3 89/226/3
f 111/228/5 115/236/5 96/229/5
f 109/231/6 88/278/6 94/232/6
f 99/223/1 100/224/1 91/234/1
f 97/213/3 98/212/3 95/235/3
f 115/236/5 116/208/5 100/210/5
f 113/233/6 94/232/6 99/205/6
f 93/237/6 106/244/6 108/238/6
f 95/240/5 98/253/5 107/241/5
f 85/243/6 101/263/6 106/244/6
f 89/245/5 95/240/5 105/242/5
f 103/247/2 101/264/2 85/248/2
f 102/250/4 104/265/4 90/251/4
f 98/253/5 90/279/5 104/254/5
f 97/239/6 108/238/6 102/255/6
f 114/257/3 116/280/3 115/258/3
f 105/260/4 106/281/4 113/261/4
f 101/263/6 109/231/6 113/233/6
f 105/242/5 115/236/5 111/228/5
f 111/220/2 109/222/2 101/264/2
f 110/216/4 112/215/4 104/265/4
f 107/241/5 104/254/5 112/266/5
f 114/207/6 110/206/6 102/255/6
f 114/267/2 108/282/2 107/268/2
f 108/270/1 106/283/1 105/271/1
