# Blender v2.79 (sub 0) OBJ File: 'abbey.blend'
# www.blender.org
mtllib F2_walls_col.mtl
o Cube.107_Cube.024
v -4.150064 8.445796 9.403702
v -4.150064 8.753809 9.403702
v -4.150064 8.445796 8.955725
v -4.150064 8.753809 8.955725
v -3.702086 8.445796 9.403702
v -3.702086 8.753809 9.403702
v -3.702086 8.445796 8.955725
v -3.702086 8.753809 8.955725
vn -1.0000 0.0000 0.0000
vn 0.0000 0.0000 -1.0000
vn 1.0000 0.0000 0.0000
vn 0.0000 0.0000 1.0000
vn 0.0000 -1.0000 0.0000
vn 0.0000 1.0000 0.0000
usemtl None
s off
f 2//1 3//1 1//1
f 4//2 7//2 3//2
f 8//3 5//3 7//3
f 6//4 1//4 5//4
f 7//5 1//5 3//5
f 4//6 6//6 8//6
f 2//1 4//1 3//1
f 4//2 8//2 7//2
f 8//3 6//3 5//3
f 6//4 2//4 1//4
f 7//5 5//5 1//5
f 4//6 2//6 6//6
