# Blender v2.79 (sub 0) OBJ File: 'low_poly_death_house.blend'
# www.blender.org
mtllib dungeon1_ground.mtl
o Plane.021
v -11.662759 2.641476 -22.499062
v -11.662759 0.006325 -22.499062
v 10.718696 0.006325 -22.499062
v 10.718696 2.641476 2.202012
v 0.531228 2.641476 -22.499062
v -11.662759 2.641476 2.202013
v 10.718696 0.006325 2.202016
v -4.243831 2.641476 2.202013
v 0.531228 2.641476 -20.051956
v 1.928456 2.641476 -20.051956
v 0.531228 2.641476 -20.986366
v 1.928456 2.641476 -20.986366
v -0.575379 2.641476 -16.344322
v 0.531228 2.641476 -16.344322
v -4.243831 2.641476 -14.047276
v -0.575379 2.641476 -14.047276
v 0.531228 2.641476 -12.636057
v -5.216173 2.641476 -11.504842
v -0.575378 2.641476 -11.504843
v 0.531228 2.641476 -11.504843
v -0.575378 2.641476 -6.724474
v 0.531228 2.641476 -6.724474
v -4.243832 2.641476 -18.689419
v -11.662759 2.641476 -7.790519
v -5.216173 2.641476 -7.790519
v -4.243831 2.641476 -7.790519
v -0.575378 2.641476 -7.790519
v 0.531228 2.641476 -7.790519
v -4.243831 2.641476 -4.381042
v -11.662759 2.641476 -18.689419
v -2.823424 1.463133 -7.790519
v -1.716178 2.641476 -12.636057
v -1.716178 2.641476 -11.504843
v -1.716178 2.641476 -6.724474
v -1.716178 2.641476 -7.790519
v -2.823424 0.212619 -7.790519
v -2.823424 0.182456 -6.724474
v 10.718696 3.856632 -22.499062
v 10.718696 3.856632 2.202012
v 0.531228 3.856632 -22.499062
v 1.928456 3.856632 -20.051956
v 0.531228 3.856632 -20.051956
v 1.928456 3.856632 -20.986366
v 0.531228 3.856632 -20.986366
v -4.243831 3.856632 2.202013
v -4.243831 3.856632 -4.381042
v -0.575378 3.856632 -4.381042
v -0.575378 3.856632 -6.724474
v 0.531228 3.856632 -6.724474
v 0.531228 3.856632 -16.344322
v -0.575379 3.856632 -16.344322
v -0.575379 3.856632 -14.047276
v -4.243831 3.856632 -14.047276
v -4.243831 3.856632 -12.636057
v 0.531228 3.856632 -12.636057
v 0.531228 3.856632 -11.504843
v -0.575378 3.856632 -11.504843
v 0.531228 3.856632 -7.790519
v -0.575378 3.856632 -7.790519
v -1.716177 1.464575 -5.624765
v -0.575378 1.464575 -6.724474
v -4.243831 1.464575 -12.636057
v -5.216173 1.464575 -11.504842
v -1.716178 1.464575 -6.724474
v -11.662759 1.464575 -7.790519
v -5.216173 1.464575 -7.790519
v -0.575378 1.464575 -4.381042
v -4.243831 1.423084 -7.790519
v -1.716178 1.464575 -12.636057
v -1.716178 1.464575 -11.504843
v -4.243832 1.464575 -18.689419
v -11.662759 1.464575 -18.689419
v -4.243831 1.432971 -4.381042
v -2.843084 1.463087 -5.621139
v -2.823424 0.212619 -7.790519
v -1.716177 0.214060 -5.624765
v -1.716178 0.214060 -6.724474
v -2.823424 0.214060 -5.624765
v -2.823424 0.182456 -5.624765
v -2.823424 0.182456 -6.724474
v -1.716178 0.212619 -7.790519
v -1.716178 0.212619 -7.790519
v -1.716178 0.214060 -6.724474
v -11.662759 0.006325 2.202016
vt 0.950251 0.280858
vt 0.918972 0.280858
vt 0.918972 0.005608
vt 0.131949 0.942893
vt 0.108225 0.942893
vt 0.108225 0.787941
vt 0.161828 0.865898
vt 0.148750 0.865898
vt 0.148750 0.828310
vt 0.921020 0.304093
vt 0.903864 0.323135
vt 0.903864 0.304093
vt 0.873270 0.005608
vt 0.887694 0.130895
vt 0.873270 0.130895
vt 0.071189 0.286857
vt 0.021739 0.679448
vt 0.052307 0.286857
vt 0.715287 0.349447
vt 0.733688 0.331532
vt 0.753216 0.349447
vt 0.034873 0.834880
vt 0.011148 0.887673
vt 0.011148 0.834880
vt 0.950250 0.005608
vt 0.309765 0.959946
vt 0.287458 0.934567
vt 0.309765 0.934567
vt 0.734263 0.283783
vt 0.715287 0.294487
vt 0.715287 0.283783
vt 0.699036 0.055661
vt 0.681998 0.055661
vt 0.681998 0.016572
vt 0.699035 0.016572
vt 0.950251 0.005608
vt 0.981529 0.148015
vt 0.950251 0.148016
vt 0.520893 0.679450
vt 0.318966 0.224454
vt 0.340508 0.224454
vt 0.752641 0.294487
vt 0.752641 0.248573
vt 0.644545 0.185242
vt 0.539334 0.447301
vt 0.539333 0.185242
vt 0.699036 0.095957
vt 0.681998 0.095957
vt 0.699036 0.219588
vt 0.059368 0.887673
vt 0.903864 0.342795
vt 0.921020 0.342795
vt 0.242083 0.828496
vt 0.257916 0.828496
vt 0.257916 0.866084
vt 0.981529 0.148016
vt 0.995952 0.148016
vt 0.995952 0.332027
vt 0.758399 0.095957
vt 0.900029 0.359416
vt 0.917843 0.378458
vt 0.900029 0.378458
vt 0.817092 0.273607
vt 0.817092 0.169304
vt 0.835470 0.169304
vt 0.887161 0.710281
vt 0.807228 0.366244
vt 0.887161 0.366244
vt 0.829077 0.336255
vt 0.848053 0.313648
vt 0.848053 0.336255
vt 0.829077 0.313648
vt 0.011148 0.916855
vt 0.035644 0.887673
vt 0.035644 0.916855
vt 0.210120 0.827728
vt 0.225952 0.827728
vt 0.225952 0.864133
vt 0.827212 0.113035
vt 0.827272 0.071458
vt 0.847975 0.155125
vt 0.210120 0.864133
vt 0.151653 0.913820
vt 0.141579 0.887672
vt 0.151653 0.887702
vt 0.309765 0.985326
vt 0.287458 0.985326
vt 0.287458 0.959946
vt 0.808854 0.113035
vt 0.808855 0.155125
vt 0.309936 0.963749
vt 0.324231 0.989129
vt 0.309936 0.989129
vt 0.835470 0.273607
vt 0.887243 0.298979
vt 0.887243 0.348910
vt 0.868268 0.348910
vt 0.107588 0.937661
vt 0.083864 0.864560
vt 0.107588 0.864560
vt 0.083864 0.864560
vt 0.107588 0.787941
vt 0.108225 0.864560
vt 0.243907 0.224454
vt 0.035644 0.913791
vt 0.057951 0.939171
vt 0.035644 0.939171
vt 0.141579 0.938401
vt 0.151653 0.938401
vt 0.057951 0.913791
vt 0.211036 0.887672
vt 0.186541 0.923974
vt 0.186541 0.887672
vt 0.776478 0.016572
vt 0.758399 0.055661
vt 0.758398 0.016572
vt 0.918972 0.280858
vt 0.887694 0.280858
vt 0.981529 0.390938
vt 0.964220 0.475736
vt 0.964220 0.412901
vt 0.324231 0.963749
vt 0.221048 0.224454
vt 0.192531 0.175030
vt 0.221048 0.011189
vt 0.981529 0.533346
vt 0.950251 0.533346
vt 0.287458 0.959946
vt 0.186541 0.887672
vt 0.186541 0.924039
vt 0.162046 0.924039
vt 0.011148 0.887673
vt 0.776478 0.095957
vt 0.699036 0.185242
vt 0.758399 0.219588
vt 0.950251 0.390938
vt 0.810356 0.315409
vt 0.793076 0.315409
vt 0.793076 0.295749
vt 0.387864 0.175031
vt 0.958839 0.298436
vt 0.950762 0.319157
vt 0.950789 0.298436
vt 0.966643 0.298924
vt 0.966643 0.319157
vt 0.679031 0.861342
vt 0.704882 0.812230
vt 0.704883 0.989010
vt 0.059368 0.787941
vt 0.734263 0.248573
vt 0.858573 0.931715
vt 0.936366 0.880398
vt 0.936366 0.931715
vt 0.034873 0.787941
vt 0.234761 0.921055
vt 0.234761 0.887672
vt 0.259122 0.887672
vt 0.950762 0.338131
vt 0.967577 0.338131
vt 0.967577 0.357791
vt 0.917843 0.359416
vt 0.176878 0.825777
vt 0.191798 0.863365
vt 0.176878 0.863365
vt 0.083864 0.937661
vt 0.309765 0.959946
vt 0.520893 0.011190
vt 0.000000 0.000000
vt 0.000000 0.000000
vt 0.000000 0.000000
vt 0.192531 0.011189
vt 0.146112 0.224454
vt 0.071189 0.224454
vt 0.021739 0.224453
vt 0.052307 0.224454
vt 0.243907 0.175031
vt 0.838967 0.931715
vt 0.807228 0.931715
vt 0.789766 0.486621
vt 0.789766 0.812230
vt 0.211036 0.924039
vt 0.234761 0.887672
vt 0.234761 0.924039
vt 0.679031 0.989010
vt 0.540693 0.486621
vt 0.540693 0.861341
vt 0.340508 0.175031
vt 0.838967 0.996508
vt 0.858573 0.996508
vt 0.753216 0.331532
vt 0.810356 0.295749
vt 0.734314 0.308551
vt 0.715287 0.308551
vt 0.059368 0.787941
vt 0.868268 0.298979
vt 0.191798 0.825777
vt 0.259321 0.921055
vt 0.918972 0.005608
vt 0.059368 0.864560
vt 0.083864 0.864560
vt 0.083864 0.941180
vt 0.995952 0.148015
vt 0.995952 0.005608
vt 0.211036 0.923974
vt 0.318966 0.175031
vt 0.950762 0.357791
vt 0.059368 0.941180
vt 0.146112 0.175030
vt 0.984562 0.710282
vt 0.984562 0.880399
vt 0.109931 0.007935
vt 0.007976 0.212110
vt 0.007976 0.007935
vt 0.211036 0.887672
vt 0.847975 0.019774
vt 0.711425 0.428095
vt 0.735452 0.483251
vt 0.711425 0.483251
vt 0.058360 0.887673
vt 0.036040 0.913791
vt 0.035644 0.887704
vt 0.699037 0.447301
vt 0.950251 0.475736
vt 0.000000 0.000000
vt 0.000000 0.000000
vt 0.000000 0.000000
vt 0.000000 0.000000
vt 0.950251 0.412901
vt 0.162046 0.887702
vt 0.162046 0.913820
vt 0.791059 0.019774
vt 0.791058 0.072184
vt 0.059368 0.864560
vt 0.000000 0.000000
vt 0.736210 0.372931
vt 0.711425 0.428092
vt 0.711425 0.372932
vt 0.242083 0.866084
vt 0.162046 0.887672
vt 0.387864 0.011190
vt 0.109931 0.212110
vt 0.131949 0.787941
vt 0.981529 0.332027
vt 0.058360 0.913791
vt 0.161828 0.828310
vt 0.736211 0.428091
vt 0.735454 0.428092
vn 0.0000 0.0000 1.0000
vn -1.0000 0.0000 0.0000
vn 0.0000 0.0000 -1.0000
vn 0.0000 1.0000 0.0000
vn 1.0000 0.0000 0.0000
vn -0.0013 1.0000 0.0012
vn 0.9999 0.0154 -0.0000
vn 0.9999 0.0075 0.0091
vn 0.0000 -1.0000 0.0000
vn -0.0086 0.9999 0.0146
vn 0.0000 1.0000 -0.0014
vn -0.0032 0.0029 -1.0000
vn -0.0282 0.9996 -0.0002
vn -0.0241 0.9997 -0.0029
vn -0.0285 0.9996 0.0000
vn -0.0285 0.9992 0.0283
usemtl Dungeon_Floor.001
s off
f 6/1/1 84/2/1 7/3/1
f 71/4/1 23/5/1 30/6/1
f 12/7/2 10/8/2 41/9/2
f 67/10/2 21/11/2 61/12/2
f 38/13/3 5/14/3 40/15/3
f 41/16/4 38/17/4 43/18/4
f 35/19/1 31/20/1 81/21/1
f 32/22/1 62/23/1 69/24/1
f 6/1/1 7/3/1 4/25/1
f 22/26/3 48/27/3 49/28/3
f 15/29/2 54/30/2 53/31/2
f 27/32/4 21/33/4 22/34/4
f 27/32/4 22/34/4 28/35/4
f 3/36/5 4/37/5 7/38/5
f 39/39/4 58/40/4 49/41/4
f 62/42/2 15/29/2 71/43/2
f 29/44/4 6/45/4 8/46/4
f 21/33/4 35/47/4 34/48/4
f 6/45/4 29/44/4 25/49/4
f 62/23/1 32/22/1 54/50/1
f 48/51/2 21/11/2 47/52/2
f 17/53/2 20/54/2 56/55/2
f 45/56/1 8/57/1 4/58/1
f 33/59/4 35/47/4 27/32/4
f 21/60/1 64/61/1 61/62/1
f 24/63/3 25/64/3 66/65/3
f 23/66/4 1/67/4 30/68/4
f 10/69/3 42/70/3 41/71/3
f 10/69/3 9/72/3 42/70/3
f 11/73/1 43/74/1 44/75/1
f 33/76/2 32/77/2 69/78/2
f 60/79/6 74/80/6 67/81/6
f 33/76/2 69/78/2 70/82/2
f 64/83/2 81/84/2 77/85/2
f 27/86/1 28/87/1 58/88/1
f 64/89/4 60/79/4 61/90/4
f 5/91/2 44/92/2 40/93/2
f 24/63/3 66/65/3 65/94/3
f 29/95/2 8/96/2 45/97/2
f 63/98/3 33/99/3 70/100/3
f 29/101/3 67/102/3 73/103/3
f 39/39/4 56/104/4 58/40/4
f 20/105/3 57/106/3 56/107/3
f 35/108/2 64/83/2 34/109/2
f 20/105/3 19/110/3 57/106/3
f 9/111/2 50/112/2 42/113/2
f 17/114/4 19/115/4 20/116/4
f 5/14/3 2/117/3 1/118/3
f 2/119/2 65/120/2 72/121/2
f 5/91/2 11/122/2 44/92/2
f 55/123/4 52/124/4 54/125/4
f 81/84/2 64/83/2 35/108/2
f 65/120/2 84/126/2 6/127/2
f 22/26/3 21/128/3 48/27/3
f 19/129/2 27/130/2 59/131/2
f 11/73/1 12/132/1 43/74/1
f 32/133/4 19/115/4 17/114/4
f 25/49/4 26/134/4 18/135/4
f 2/119/2 72/121/2 1/136/2
f 14/137/3 13/138/3 51/139/3
f 67/10/2 47/52/2 21/11/2
f 39/39/4 49/41/4 47/140/4
f 80/141/7 74/142/7 79/143/7
f 36/144/5 31/145/5 80/141/5
f 62/146/4 63/147/4 70/148/4
f 32/22/1 55/149/1 54/50/1
f 26/134/4 33/59/4 18/135/4
f 33/59/4 27/32/4 19/115/4
f 15/29/2 23/150/2 71/43/2
f 9/151/4 13/152/4 14/153/4
f 55/149/1 32/22/1 17/154/1
f 26/155/5 29/156/5 73/157/5
f 27/32/4 35/47/4 21/33/4
f 13/158/2 16/159/2 52/160/2
f 21/60/1 34/161/1 64/61/1
f 33/59/4 19/115/4 32/133/4
f 28/162/2 49/163/2 58/164/2
f 63/98/3 18/165/3 33/99/3
f 27/86/1 58/88/1 59/166/1
f 39/39/4 47/140/4 45/167/4
f 77/168/1 37/169/1 80/170/1
f 74/142/8 80/141/8 31/145/8
f 54/125/4 52/124/4 53/171/4
f 50/172/4 41/16/4 42/173/4
f 38/17/4 56/104/4 39/39/4
f 43/18/4 40/174/4 44/175/4
f 58/40/4 56/104/4 57/176/4
f 23/66/4 11/177/4 5/178/4
f 63/147/4 65/179/4 66/180/4
f 25/181/2 63/182/2 66/183/2
f 62/146/4 70/148/4 69/184/4
f 23/66/4 5/178/4 1/67/4
f 72/185/4 63/147/4 71/186/4
f 47/140/4 49/41/4 48/187/4
f 12/188/4 9/151/4 10/189/4
f 81/21/1 31/20/1 36/190/1
f 56/104/4 38/17/4 41/16/4
f 43/18/4 38/17/4 40/174/4
f 14/137/3 51/139/3 50/191/3
f 55/123/4 50/172/4 52/124/4
f 68/192/1 31/20/1 26/193/1
f 67/102/3 29/101/3 47/194/3
f 29/95/2 45/97/2 46/195/2
f 28/162/2 22/196/2 49/163/2
f 26/155/5 73/157/5 68/197/5
f 3/198/3 5/14/3 38/13/3
f 52/199/3 16/200/3 15/201/3
f 39/202/5 4/37/5 38/203/5
f 9/111/2 14/204/2 50/112/2
f 3/36/5 38/203/5 4/37/5
f 58/40/4 57/176/4 59/205/4
f 13/152/4 11/177/4 23/66/4
f 13/158/2 52/160/2 51/206/2
f 52/199/3 15/201/3 53/207/3
f 52/124/4 50/172/4 51/208/4
f 13/152/4 15/209/4 16/210/4
f 7/211/9 2/212/9 3/213/9
f 56/104/4 41/16/4 55/123/4
f 25/181/2 18/214/2 63/182/2
f 15/29/2 62/42/2 54/30/2
f 73/215/10 67/81/10 74/80/10
f 75/216/11 83/217/11 82/218/11
f 60/219/12 78/220/12 74/221/12
f 13/152/4 23/66/4 15/209/4
f 6/45/4 25/49/4 24/222/4
f 24/223/2 65/120/2 6/127/2
f 62/146/4 71/186/4 63/147/4
f 5/14/3 3/198/3 2/117/3
f 36/224/1 82/225/1 81/226/1
f 81/226/1 83/227/1 77/168/1
f 1/136/2 72/121/2 30/228/2
f 64/83/2 76/229/2 60/230/2
f 68/231/13 74/80/13 31/232/13
f 29/101/3 46/233/3 47/194/3
f 80/170/1 75/234/1 36/224/1
f 73/215/14 74/80/14 68/231/14
f 79/235/15 77/236/15 80/237/15
f 31/20/1 35/19/1 26/193/1
f 9/151/4 11/177/4 13/152/4
f 60/79/4 67/81/4 61/90/4
f 17/53/2 56/55/2 55/238/2
f 19/129/2 59/131/2 57/239/2
f 45/167/4 47/140/4 46/240/4
f 26/134/4 25/49/4 29/44/4
f 11/177/4 9/151/4 12/188/4
f 7/211/9 84/241/9 2/212/9
f 71/4/1 30/6/1 72/242/1
f 45/56/1 4/58/1 39/243/1
f 63/147/4 72/185/4 65/179/4
f 50/172/4 55/123/4 41/16/4
f 64/83/2 77/85/2 76/229/2
f 60/219/3 76/244/3 78/220/3
f 12/7/2 41/9/2 43/245/2
f 77/168/1 83/227/1 37/169/1
f 79/235/15 76/246/15 77/236/15
f 75/216/16 37/247/16 83/217/16
f 80/170/1 37/169/1 75/234/1
f 36/224/1 75/234/1 82/225/1
f 81/226/1 82/225/1 83/227/1
f 84/126/2 65/120/2 2/119/2
f 33/59/4 26/134/4 35/47/4
