# Blender v2.79 (sub 0) OBJ File: 'low_poly_death_house.blend'
# www.blender.org
o F2_walls_col_Cube.875
v 3.864394 0.360128 1.722747
v 3.864394 1.206361 1.722747
v 3.685591 0.360128 1.722747
v 3.685591 1.206361 1.722747
v 3.864393 0.360128 -2.023318
v 3.864393 1.206361 -2.023318
v 3.685591 0.360128 -2.023318
v 3.685591 1.206361 -2.023318
vn 0.0000 0.0000 1.0000
vn -1.0000 0.0000 0.0000
vn 0.0000 0.0000 -1.0000
vn 1.0000 0.0000 -0.0000
vn 0.0000 -1.0000 -0.0000
vn 0.0000 1.0000 -0.0000
s off
f 2//1 3//1 1//1
f 4//2 7//2 3//2
f 8//3 5//3 7//3
f 6//4 1//4 5//4
f 7//5 1//5 3//5
f 4//6 6//6 8//6
f 2//1 4//1 3//1
f 4//2 8//2 7//2
f 8//3 6//3 5//3
f 6//4 2//4 1//4
f 7//5 5//5 1//5
f 4//6 2//6 6//6
